G04 #@! TF.FileFunction,Legend,Top*
%FSLAX46Y46*%
G04 Gerber Fmt 4.6, Leading zero omitted, Abs format (unit mm)*
G04 Created by KiCad (PCBNEW 4.0.3+e1-6302~38~ubuntu16.04.1-stable) date Sun Aug 28 11:49:07 2016*
%MOMM*%
%LPD*%
G01*
G04 APERTURE LIST*
%ADD10C,0.100000*%
%ADD11C,0.300000*%
%ADD12C,0.250000*%
%ADD13C,0.150000*%
%ADD14C,0.010000*%
G04 APERTURE END LIST*
D10*
D11*
X130278571Y-114092857D02*
X128778571Y-114092857D01*
X129850000Y-113592857D01*
X128778571Y-113092857D01*
X130278571Y-113092857D01*
X130278571Y-111735714D02*
X129492857Y-111735714D01*
X129350000Y-111807143D01*
X129278571Y-111950000D01*
X129278571Y-112235714D01*
X129350000Y-112378571D01*
X130207143Y-111735714D02*
X130278571Y-111878571D01*
X130278571Y-112235714D01*
X130207143Y-112378571D01*
X130064286Y-112450000D01*
X129921429Y-112450000D01*
X129778571Y-112378571D01*
X129707143Y-112235714D01*
X129707143Y-111878571D01*
X129635714Y-111735714D01*
X129278571Y-111235714D02*
X129278571Y-110664285D01*
X128778571Y-111021428D02*
X130064286Y-111021428D01*
X130207143Y-110950000D01*
X130278571Y-110807142D01*
X130278571Y-110664285D01*
X129278571Y-110378571D02*
X129278571Y-109807142D01*
X128778571Y-110164285D02*
X130064286Y-110164285D01*
X130207143Y-110092857D01*
X130278571Y-109949999D01*
X130278571Y-109807142D01*
X128778571Y-108378571D02*
X130278571Y-107878571D01*
X128778571Y-107378571D01*
X130278571Y-106235714D02*
X129492857Y-106235714D01*
X129350000Y-106307143D01*
X129278571Y-106450000D01*
X129278571Y-106735714D01*
X129350000Y-106878571D01*
X130207143Y-106235714D02*
X130278571Y-106378571D01*
X130278571Y-106735714D01*
X130207143Y-106878571D01*
X130064286Y-106950000D01*
X129921429Y-106950000D01*
X129778571Y-106878571D01*
X129707143Y-106735714D01*
X129707143Y-106378571D01*
X129635714Y-106235714D01*
X130278571Y-105307142D02*
X130207143Y-105450000D01*
X130064286Y-105521428D01*
X128778571Y-105521428D01*
X130278571Y-104092857D02*
X129492857Y-104092857D01*
X129350000Y-104164286D01*
X129278571Y-104307143D01*
X129278571Y-104592857D01*
X129350000Y-104735714D01*
X130207143Y-104092857D02*
X130278571Y-104235714D01*
X130278571Y-104592857D01*
X130207143Y-104735714D01*
X130064286Y-104807143D01*
X129921429Y-104807143D01*
X129778571Y-104735714D01*
X129707143Y-104592857D01*
X129707143Y-104235714D01*
X129635714Y-104092857D01*
X129278571Y-103378571D02*
X130278571Y-103378571D01*
X129421429Y-103378571D02*
X129350000Y-103307143D01*
X129278571Y-103164285D01*
X129278571Y-102950000D01*
X129350000Y-102807143D01*
X129492857Y-102735714D01*
X130278571Y-102735714D01*
X130207143Y-101378571D02*
X130278571Y-101521428D01*
X130278571Y-101807142D01*
X130207143Y-101950000D01*
X130135714Y-102021428D01*
X129992857Y-102092857D01*
X129564286Y-102092857D01*
X129421429Y-102021428D01*
X129350000Y-101950000D01*
X129278571Y-101807142D01*
X129278571Y-101521428D01*
X129350000Y-101378571D01*
X129278571Y-100878571D02*
X130278571Y-100521428D01*
X129278571Y-100164286D02*
X130278571Y-100521428D01*
X130635714Y-100664286D01*
X130707143Y-100735714D01*
X130778571Y-100878571D01*
D12*
X136280951Y-101604762D02*
X136423808Y-101652381D01*
X136661904Y-101652381D01*
X136757142Y-101604762D01*
X136804761Y-101557143D01*
X136852380Y-101461905D01*
X136852380Y-101366667D01*
X136804761Y-101271429D01*
X136757142Y-101223810D01*
X136661904Y-101176190D01*
X136471427Y-101128571D01*
X136376189Y-101080952D01*
X136328570Y-101033333D01*
X136280951Y-100938095D01*
X136280951Y-100842857D01*
X136328570Y-100747619D01*
X136376189Y-100700000D01*
X136471427Y-100652381D01*
X136709523Y-100652381D01*
X136852380Y-100700000D01*
X137709523Y-100652381D02*
X137519046Y-100652381D01*
X137423808Y-100700000D01*
X137376189Y-100747619D01*
X137280951Y-100890476D01*
X137233332Y-101080952D01*
X137233332Y-101461905D01*
X137280951Y-101557143D01*
X137328570Y-101604762D01*
X137423808Y-101652381D01*
X137614285Y-101652381D01*
X137709523Y-101604762D01*
X137757142Y-101557143D01*
X137804761Y-101461905D01*
X137804761Y-101223810D01*
X137757142Y-101128571D01*
X137709523Y-101080952D01*
X137614285Y-101033333D01*
X137423808Y-101033333D01*
X137328570Y-101080952D01*
X137280951Y-101128571D01*
X137233332Y-101223810D01*
X138185713Y-101366667D02*
X138661904Y-101366667D01*
X138090475Y-101652381D02*
X138423808Y-100652381D01*
X138757142Y-101652381D01*
X139090475Y-101128571D02*
X139423809Y-101128571D01*
X139566666Y-101652381D02*
X139090475Y-101652381D01*
X139090475Y-100652381D01*
X139566666Y-100652381D01*
X140519047Y-101652381D02*
X139947618Y-101652381D01*
X140233332Y-101652381D02*
X140233332Y-100652381D01*
X140138094Y-100795238D01*
X140042856Y-100890476D01*
X139947618Y-100938095D01*
X141138094Y-100652381D02*
X141233333Y-100652381D01*
X141328571Y-100700000D01*
X141376190Y-100747619D01*
X141423809Y-100842857D01*
X141471428Y-101033333D01*
X141471428Y-101271429D01*
X141423809Y-101461905D01*
X141376190Y-101557143D01*
X141328571Y-101604762D01*
X141233333Y-101652381D01*
X141138094Y-101652381D01*
X141042856Y-101604762D01*
X140995237Y-101557143D01*
X140947618Y-101461905D01*
X140899999Y-101271429D01*
X140899999Y-101033333D01*
X140947618Y-100842857D01*
X140995237Y-100747619D01*
X141042856Y-100700000D01*
X141138094Y-100652381D01*
X142423809Y-101652381D02*
X141852380Y-101652381D01*
X142138094Y-101652381D02*
X142138094Y-100652381D01*
X142042856Y-100795238D01*
X141947618Y-100890476D01*
X141852380Y-100938095D01*
X142804761Y-101366667D02*
X143280952Y-101366667D01*
X142709523Y-101652381D02*
X143042856Y-100652381D01*
X143376190Y-101652381D01*
X144471428Y-101652381D02*
X144471428Y-100652381D01*
X144471428Y-101033333D02*
X144566666Y-100985714D01*
X144757143Y-100985714D01*
X144852381Y-101033333D01*
X144900000Y-101080952D01*
X144947619Y-101176190D01*
X144947619Y-101461905D01*
X144900000Y-101557143D01*
X144852381Y-101604762D01*
X144757143Y-101652381D01*
X144566666Y-101652381D01*
X144471428Y-101604762D01*
X145376190Y-101652381D02*
X145376190Y-100985714D01*
X145376190Y-101176190D02*
X145423809Y-101080952D01*
X145471428Y-101033333D01*
X145566666Y-100985714D01*
X145661905Y-100985714D01*
X146376191Y-101604762D02*
X146280953Y-101652381D01*
X146090476Y-101652381D01*
X145995238Y-101604762D01*
X145947619Y-101509524D01*
X145947619Y-101128571D01*
X145995238Y-101033333D01*
X146090476Y-100985714D01*
X146280953Y-100985714D01*
X146376191Y-101033333D01*
X146423810Y-101128571D01*
X146423810Y-101223810D01*
X145947619Y-101319048D01*
X147280953Y-101652381D02*
X147280953Y-101128571D01*
X147233334Y-101033333D01*
X147138096Y-100985714D01*
X146947619Y-100985714D01*
X146852381Y-101033333D01*
X147280953Y-101604762D02*
X147185715Y-101652381D01*
X146947619Y-101652381D01*
X146852381Y-101604762D01*
X146804762Y-101509524D01*
X146804762Y-101414286D01*
X146852381Y-101319048D01*
X146947619Y-101271429D01*
X147185715Y-101271429D01*
X147280953Y-101223810D01*
X147757143Y-101652381D02*
X147757143Y-100652381D01*
X147852381Y-101271429D02*
X148138096Y-101652381D01*
X148138096Y-100985714D02*
X147757143Y-101366667D01*
X148709524Y-101652381D02*
X148614286Y-101604762D01*
X148566667Y-101557143D01*
X148519048Y-101461905D01*
X148519048Y-101176190D01*
X148566667Y-101080952D01*
X148614286Y-101033333D01*
X148709524Y-100985714D01*
X148852382Y-100985714D01*
X148947620Y-101033333D01*
X148995239Y-101080952D01*
X149042858Y-101176190D01*
X149042858Y-101461905D01*
X148995239Y-101557143D01*
X148947620Y-101604762D01*
X148852382Y-101652381D01*
X148709524Y-101652381D01*
X149900001Y-100985714D02*
X149900001Y-101652381D01*
X149471429Y-100985714D02*
X149471429Y-101509524D01*
X149519048Y-101604762D01*
X149614286Y-101652381D01*
X149757144Y-101652381D01*
X149852382Y-101604762D01*
X149900001Y-101557143D01*
X150233334Y-100985714D02*
X150614286Y-100985714D01*
X150376191Y-100652381D02*
X150376191Y-101509524D01*
X150423810Y-101604762D01*
X150519048Y-101652381D01*
X150614286Y-101652381D01*
D13*
X143797843Y-105015000D02*
G75*
G03X143797843Y-105015000I-282843J0D01*
G01*
X144415000Y-105415000D02*
X143915000Y-105915000D01*
X146915000Y-109240000D02*
X146915000Y-105390000D01*
X146915000Y-105390000D02*
X143915000Y-105390000D01*
X143915000Y-105390000D02*
X143915000Y-109240000D01*
X143915000Y-109240000D02*
X146915000Y-109240000D01*
X146915000Y-109240000D02*
X146915000Y-106390000D01*
X138946000Y-109816000D02*
X139946000Y-109816000D01*
X139946000Y-108116000D02*
X138946000Y-108116000D01*
X138946000Y-106260000D02*
X139946000Y-106260000D01*
X139946000Y-104560000D02*
X138946000Y-104560000D01*
X154543000Y-101160000D02*
X154543000Y-100906000D01*
X154543000Y-100906000D02*
X152257000Y-100906000D01*
X152257000Y-100906000D02*
X152257000Y-101160000D01*
X154543000Y-101160000D02*
X152257000Y-101160000D01*
X152257000Y-101160000D02*
X152257000Y-102811000D01*
X154543000Y-104589000D02*
X154543000Y-106240000D01*
X154543000Y-106240000D02*
X152257000Y-106240000D01*
X152257000Y-106240000D02*
X152257000Y-104589000D01*
X154543000Y-102811000D02*
X154543000Y-101160000D01*
X152238000Y-113651000D02*
X151038000Y-113651000D01*
X151038000Y-111901000D02*
X152238000Y-111901000D01*
X152238000Y-111365000D02*
X151038000Y-111365000D01*
X151038000Y-109615000D02*
X152238000Y-109615000D01*
X152238000Y-109079000D02*
X151038000Y-109079000D01*
X151038000Y-107329000D02*
X152238000Y-107329000D01*
X139796000Y-112106000D02*
X139096000Y-112106000D01*
X139096000Y-110906000D02*
X139796000Y-110906000D01*
X133350000Y-110490000D02*
X133350000Y-113030000D01*
X133630000Y-107670000D02*
X133630000Y-109220000D01*
X133350000Y-110490000D02*
X130810000Y-110490000D01*
X130530000Y-109220000D02*
X130530000Y-107670000D01*
X130530000Y-107670000D02*
X133630000Y-107670000D01*
X130810000Y-110490000D02*
X130810000Y-113030000D01*
X130810000Y-113030000D02*
X133350000Y-113030000D01*
X158750000Y-110490000D02*
X158750000Y-113030000D01*
X159030000Y-107670000D02*
X159030000Y-109220000D01*
X158750000Y-110490000D02*
X156210000Y-110490000D01*
X155930000Y-109220000D02*
X155930000Y-107670000D01*
X155930000Y-107670000D02*
X159030000Y-107670000D01*
X156210000Y-110490000D02*
X156210000Y-113030000D01*
X156210000Y-113030000D02*
X158750000Y-113030000D01*
X158750000Y-102870000D02*
X158750000Y-105410000D01*
X159030000Y-100050000D02*
X159030000Y-101600000D01*
X158750000Y-102870000D02*
X156210000Y-102870000D01*
X155930000Y-101600000D02*
X155930000Y-100050000D01*
X155930000Y-100050000D02*
X159030000Y-100050000D01*
X156210000Y-102870000D02*
X156210000Y-105410000D01*
X156210000Y-105410000D02*
X158750000Y-105410000D01*
X133350000Y-102870000D02*
X133350000Y-105410000D01*
X133630000Y-100050000D02*
X133630000Y-101600000D01*
X133350000Y-102870000D02*
X130810000Y-102870000D01*
X130530000Y-101600000D02*
X130530000Y-100050000D01*
X130530000Y-100050000D02*
X133630000Y-100050000D01*
X130810000Y-102870000D02*
X130810000Y-105410000D01*
X130810000Y-105410000D02*
X133350000Y-105410000D01*
D14*
G36*
X141299744Y-114019918D02*
X141355201Y-114047568D01*
X141404148Y-114098480D01*
X141417629Y-114117338D01*
X141432314Y-114142015D01*
X141441842Y-114168816D01*
X141447293Y-114204587D01*
X141449747Y-114256169D01*
X141450286Y-114324267D01*
X141447852Y-114417588D01*
X141439394Y-114487657D01*
X141423174Y-114539931D01*
X141397454Y-114579869D01*
X141360497Y-114612929D01*
X141357782Y-114614886D01*
X141321360Y-114634908D01*
X141277502Y-114644815D01*
X141221724Y-114647257D01*
X141131048Y-114647257D01*
X141131010Y-114735283D01*
X141130166Y-114784308D01*
X141125024Y-114813065D01*
X141111587Y-114830311D01*
X141085858Y-114844808D01*
X141079679Y-114847769D01*
X141050764Y-114861648D01*
X141028376Y-114870414D01*
X141011729Y-114871171D01*
X141000036Y-114861023D01*
X140992510Y-114837073D01*
X140988366Y-114796426D01*
X140986815Y-114736186D01*
X140987071Y-114653455D01*
X140988349Y-114545339D01*
X140988748Y-114513000D01*
X140990185Y-114401524D01*
X140991472Y-114328603D01*
X141130971Y-114328603D01*
X141131755Y-114390499D01*
X141135240Y-114430997D01*
X141143124Y-114457708D01*
X141157105Y-114478244D01*
X141166597Y-114488260D01*
X141205404Y-114517567D01*
X141239763Y-114519952D01*
X141275216Y-114495750D01*
X141276114Y-114494857D01*
X141290539Y-114476153D01*
X141299313Y-114450732D01*
X141303739Y-114411584D01*
X141305118Y-114351697D01*
X141305143Y-114338430D01*
X141301812Y-114255901D01*
X141290969Y-114198691D01*
X141271340Y-114163766D01*
X141241650Y-114148094D01*
X141224491Y-114146514D01*
X141183766Y-114153926D01*
X141155832Y-114178330D01*
X141139017Y-114222980D01*
X141131650Y-114291130D01*
X141130971Y-114328603D01*
X140991472Y-114328603D01*
X140991708Y-114315245D01*
X140993677Y-114250333D01*
X140996450Y-114202958D01*
X141000388Y-114169290D01*
X141005849Y-114145498D01*
X141013192Y-114127753D01*
X141022777Y-114112224D01*
X141026887Y-114106381D01*
X141081405Y-114051185D01*
X141150336Y-114019890D01*
X141230072Y-114011165D01*
X141299744Y-114019918D01*
X141299744Y-114019918D01*
G37*
X141299744Y-114019918D02*
X141355201Y-114047568D01*
X141404148Y-114098480D01*
X141417629Y-114117338D01*
X141432314Y-114142015D01*
X141441842Y-114168816D01*
X141447293Y-114204587D01*
X141449747Y-114256169D01*
X141450286Y-114324267D01*
X141447852Y-114417588D01*
X141439394Y-114487657D01*
X141423174Y-114539931D01*
X141397454Y-114579869D01*
X141360497Y-114612929D01*
X141357782Y-114614886D01*
X141321360Y-114634908D01*
X141277502Y-114644815D01*
X141221724Y-114647257D01*
X141131048Y-114647257D01*
X141131010Y-114735283D01*
X141130166Y-114784308D01*
X141125024Y-114813065D01*
X141111587Y-114830311D01*
X141085858Y-114844808D01*
X141079679Y-114847769D01*
X141050764Y-114861648D01*
X141028376Y-114870414D01*
X141011729Y-114871171D01*
X141000036Y-114861023D01*
X140992510Y-114837073D01*
X140988366Y-114796426D01*
X140986815Y-114736186D01*
X140987071Y-114653455D01*
X140988349Y-114545339D01*
X140988748Y-114513000D01*
X140990185Y-114401524D01*
X140991472Y-114328603D01*
X141130971Y-114328603D01*
X141131755Y-114390499D01*
X141135240Y-114430997D01*
X141143124Y-114457708D01*
X141157105Y-114478244D01*
X141166597Y-114488260D01*
X141205404Y-114517567D01*
X141239763Y-114519952D01*
X141275216Y-114495750D01*
X141276114Y-114494857D01*
X141290539Y-114476153D01*
X141299313Y-114450732D01*
X141303739Y-114411584D01*
X141305118Y-114351697D01*
X141305143Y-114338430D01*
X141301812Y-114255901D01*
X141290969Y-114198691D01*
X141271340Y-114163766D01*
X141241650Y-114148094D01*
X141224491Y-114146514D01*
X141183766Y-114153926D01*
X141155832Y-114178330D01*
X141139017Y-114222980D01*
X141131650Y-114291130D01*
X141130971Y-114328603D01*
X140991472Y-114328603D01*
X140991708Y-114315245D01*
X140993677Y-114250333D01*
X140996450Y-114202958D01*
X141000388Y-114169290D01*
X141005849Y-114145498D01*
X141013192Y-114127753D01*
X141022777Y-114112224D01*
X141026887Y-114106381D01*
X141081405Y-114051185D01*
X141150336Y-114019890D01*
X141230072Y-114011165D01*
X141299744Y-114019918D01*
G36*
X142416093Y-114027780D02*
X142462672Y-114054723D01*
X142495057Y-114081466D01*
X142518742Y-114109484D01*
X142535059Y-114143748D01*
X142545339Y-114189227D01*
X142550914Y-114250892D01*
X142553116Y-114333711D01*
X142553371Y-114393246D01*
X142553371Y-114612391D01*
X142491686Y-114640044D01*
X142430000Y-114667697D01*
X142422743Y-114427670D01*
X142419744Y-114338028D01*
X142416598Y-114272962D01*
X142412701Y-114228026D01*
X142407447Y-114198770D01*
X142400231Y-114180748D01*
X142390450Y-114169511D01*
X142387312Y-114167079D01*
X142339761Y-114148083D01*
X142291697Y-114155600D01*
X142263086Y-114175543D01*
X142251447Y-114189675D01*
X142243391Y-114208220D01*
X142238271Y-114236334D01*
X142235441Y-114279173D01*
X142234256Y-114341895D01*
X142234057Y-114407261D01*
X142234018Y-114489268D01*
X142232614Y-114547316D01*
X142227914Y-114586465D01*
X142217987Y-114611780D01*
X142200903Y-114628323D01*
X142174732Y-114641156D01*
X142139775Y-114654491D01*
X142101596Y-114669007D01*
X142106141Y-114411389D01*
X142107971Y-114318519D01*
X142110112Y-114249889D01*
X142113181Y-114200711D01*
X142117794Y-114166198D01*
X142124568Y-114141562D01*
X142134119Y-114122016D01*
X142145634Y-114104770D01*
X142201190Y-114049680D01*
X142268980Y-114017822D01*
X142342713Y-114010191D01*
X142416093Y-114027780D01*
X142416093Y-114027780D01*
G37*
X142416093Y-114027780D02*
X142462672Y-114054723D01*
X142495057Y-114081466D01*
X142518742Y-114109484D01*
X142535059Y-114143748D01*
X142545339Y-114189227D01*
X142550914Y-114250892D01*
X142553116Y-114333711D01*
X142553371Y-114393246D01*
X142553371Y-114612391D01*
X142491686Y-114640044D01*
X142430000Y-114667697D01*
X142422743Y-114427670D01*
X142419744Y-114338028D01*
X142416598Y-114272962D01*
X142412701Y-114228026D01*
X142407447Y-114198770D01*
X142400231Y-114180748D01*
X142390450Y-114169511D01*
X142387312Y-114167079D01*
X142339761Y-114148083D01*
X142291697Y-114155600D01*
X142263086Y-114175543D01*
X142251447Y-114189675D01*
X142243391Y-114208220D01*
X142238271Y-114236334D01*
X142235441Y-114279173D01*
X142234256Y-114341895D01*
X142234057Y-114407261D01*
X142234018Y-114489268D01*
X142232614Y-114547316D01*
X142227914Y-114586465D01*
X142217987Y-114611780D01*
X142200903Y-114628323D01*
X142174732Y-114641156D01*
X142139775Y-114654491D01*
X142101596Y-114669007D01*
X142106141Y-114411389D01*
X142107971Y-114318519D01*
X142110112Y-114249889D01*
X142113181Y-114200711D01*
X142117794Y-114166198D01*
X142124568Y-114141562D01*
X142134119Y-114122016D01*
X142145634Y-114104770D01*
X142201190Y-114049680D01*
X142268980Y-114017822D01*
X142342713Y-114010191D01*
X142416093Y-114027780D01*
G36*
X140741115Y-114021962D02*
X140809145Y-114057733D01*
X140859351Y-114115301D01*
X140877185Y-114152312D01*
X140891063Y-114207882D01*
X140898167Y-114278096D01*
X140898840Y-114354727D01*
X140893427Y-114429552D01*
X140882270Y-114494342D01*
X140865714Y-114540873D01*
X140860626Y-114548887D01*
X140800355Y-114608707D01*
X140728769Y-114644535D01*
X140651092Y-114655020D01*
X140572548Y-114638810D01*
X140550689Y-114629092D01*
X140508122Y-114599143D01*
X140470763Y-114559433D01*
X140467232Y-114554397D01*
X140452881Y-114530124D01*
X140443394Y-114504178D01*
X140437790Y-114470022D01*
X140435086Y-114421119D01*
X140434299Y-114350935D01*
X140434286Y-114335200D01*
X140434322Y-114330192D01*
X140579429Y-114330192D01*
X140580273Y-114396430D01*
X140583596Y-114440386D01*
X140590583Y-114468779D01*
X140602416Y-114488325D01*
X140608457Y-114494857D01*
X140643186Y-114519680D01*
X140676903Y-114518548D01*
X140710995Y-114497016D01*
X140731329Y-114474029D01*
X140743371Y-114440478D01*
X140750134Y-114387569D01*
X140750598Y-114381399D01*
X140751752Y-114285513D01*
X140739688Y-114214299D01*
X140714570Y-114168194D01*
X140676560Y-114147635D01*
X140662992Y-114146514D01*
X140627364Y-114152152D01*
X140602994Y-114171686D01*
X140588093Y-114209042D01*
X140580875Y-114268150D01*
X140579429Y-114330192D01*
X140434322Y-114330192D01*
X140434826Y-114260413D01*
X140437096Y-114208159D01*
X140442068Y-114171949D01*
X140450713Y-114145299D01*
X140464005Y-114121722D01*
X140466943Y-114117338D01*
X140516313Y-114058249D01*
X140570109Y-114023947D01*
X140635602Y-114010331D01*
X140657842Y-114009665D01*
X140741115Y-114021962D01*
X140741115Y-114021962D01*
G37*
X140741115Y-114021962D02*
X140809145Y-114057733D01*
X140859351Y-114115301D01*
X140877185Y-114152312D01*
X140891063Y-114207882D01*
X140898167Y-114278096D01*
X140898840Y-114354727D01*
X140893427Y-114429552D01*
X140882270Y-114494342D01*
X140865714Y-114540873D01*
X140860626Y-114548887D01*
X140800355Y-114608707D01*
X140728769Y-114644535D01*
X140651092Y-114655020D01*
X140572548Y-114638810D01*
X140550689Y-114629092D01*
X140508122Y-114599143D01*
X140470763Y-114559433D01*
X140467232Y-114554397D01*
X140452881Y-114530124D01*
X140443394Y-114504178D01*
X140437790Y-114470022D01*
X140435086Y-114421119D01*
X140434299Y-114350935D01*
X140434286Y-114335200D01*
X140434322Y-114330192D01*
X140579429Y-114330192D01*
X140580273Y-114396430D01*
X140583596Y-114440386D01*
X140590583Y-114468779D01*
X140602416Y-114488325D01*
X140608457Y-114494857D01*
X140643186Y-114519680D01*
X140676903Y-114518548D01*
X140710995Y-114497016D01*
X140731329Y-114474029D01*
X140743371Y-114440478D01*
X140750134Y-114387569D01*
X140750598Y-114381399D01*
X140751752Y-114285513D01*
X140739688Y-114214299D01*
X140714570Y-114168194D01*
X140676560Y-114147635D01*
X140662992Y-114146514D01*
X140627364Y-114152152D01*
X140602994Y-114171686D01*
X140588093Y-114209042D01*
X140580875Y-114268150D01*
X140579429Y-114330192D01*
X140434322Y-114330192D01*
X140434826Y-114260413D01*
X140437096Y-114208159D01*
X140442068Y-114171949D01*
X140450713Y-114145299D01*
X140464005Y-114121722D01*
X140466943Y-114117338D01*
X140516313Y-114058249D01*
X140570109Y-114023947D01*
X140635602Y-114010331D01*
X140657842Y-114009665D01*
X140741115Y-114021962D01*
G36*
X141868303Y-114031239D02*
X141925527Y-114069735D01*
X141969749Y-114125335D01*
X141996167Y-114196086D01*
X142001510Y-114248162D01*
X142000903Y-114269893D01*
X141995822Y-114286531D01*
X141981855Y-114301437D01*
X141954589Y-114317973D01*
X141909612Y-114339498D01*
X141842511Y-114369374D01*
X141842171Y-114369524D01*
X141780407Y-114397813D01*
X141729759Y-114422933D01*
X141695404Y-114442179D01*
X141682518Y-114452848D01*
X141682514Y-114452934D01*
X141693872Y-114476166D01*
X141720431Y-114501774D01*
X141750923Y-114520221D01*
X141766370Y-114523886D01*
X141808515Y-114511212D01*
X141844808Y-114479471D01*
X141862517Y-114444572D01*
X141879552Y-114418845D01*
X141912922Y-114389546D01*
X141952149Y-114364235D01*
X141986756Y-114350471D01*
X141993993Y-114349714D01*
X142002139Y-114362160D01*
X142002630Y-114393972D01*
X141996643Y-114436866D01*
X141985357Y-114482558D01*
X141969950Y-114522761D01*
X141969171Y-114524322D01*
X141922804Y-114589062D01*
X141862711Y-114633097D01*
X141794465Y-114654711D01*
X141723638Y-114652185D01*
X141655804Y-114623804D01*
X141652788Y-114621808D01*
X141599427Y-114573448D01*
X141564340Y-114510352D01*
X141544922Y-114427387D01*
X141542316Y-114404078D01*
X141537701Y-114294055D01*
X141543233Y-114242748D01*
X141682514Y-114242748D01*
X141684324Y-114274753D01*
X141694222Y-114284093D01*
X141718898Y-114277105D01*
X141757795Y-114260587D01*
X141801275Y-114239881D01*
X141802356Y-114239333D01*
X141839209Y-114219949D01*
X141854000Y-114207013D01*
X141850353Y-114193451D01*
X141834995Y-114175632D01*
X141795923Y-114149845D01*
X141753846Y-114147950D01*
X141716103Y-114166717D01*
X141690034Y-114202915D01*
X141682514Y-114242748D01*
X141543233Y-114242748D01*
X141547194Y-114206027D01*
X141571550Y-114136212D01*
X141605456Y-114087302D01*
X141666653Y-114037878D01*
X141734063Y-114013359D01*
X141802880Y-114011797D01*
X141868303Y-114031239D01*
X141868303Y-114031239D01*
G37*
X141868303Y-114031239D02*
X141925527Y-114069735D01*
X141969749Y-114125335D01*
X141996167Y-114196086D01*
X142001510Y-114248162D01*
X142000903Y-114269893D01*
X141995822Y-114286531D01*
X141981855Y-114301437D01*
X141954589Y-114317973D01*
X141909612Y-114339498D01*
X141842511Y-114369374D01*
X141842171Y-114369524D01*
X141780407Y-114397813D01*
X141729759Y-114422933D01*
X141695404Y-114442179D01*
X141682518Y-114452848D01*
X141682514Y-114452934D01*
X141693872Y-114476166D01*
X141720431Y-114501774D01*
X141750923Y-114520221D01*
X141766370Y-114523886D01*
X141808515Y-114511212D01*
X141844808Y-114479471D01*
X141862517Y-114444572D01*
X141879552Y-114418845D01*
X141912922Y-114389546D01*
X141952149Y-114364235D01*
X141986756Y-114350471D01*
X141993993Y-114349714D01*
X142002139Y-114362160D01*
X142002630Y-114393972D01*
X141996643Y-114436866D01*
X141985357Y-114482558D01*
X141969950Y-114522761D01*
X141969171Y-114524322D01*
X141922804Y-114589062D01*
X141862711Y-114633097D01*
X141794465Y-114654711D01*
X141723638Y-114652185D01*
X141655804Y-114623804D01*
X141652788Y-114621808D01*
X141599427Y-114573448D01*
X141564340Y-114510352D01*
X141544922Y-114427387D01*
X141542316Y-114404078D01*
X141537701Y-114294055D01*
X141543233Y-114242748D01*
X141682514Y-114242748D01*
X141684324Y-114274753D01*
X141694222Y-114284093D01*
X141718898Y-114277105D01*
X141757795Y-114260587D01*
X141801275Y-114239881D01*
X141802356Y-114239333D01*
X141839209Y-114219949D01*
X141854000Y-114207013D01*
X141850353Y-114193451D01*
X141834995Y-114175632D01*
X141795923Y-114149845D01*
X141753846Y-114147950D01*
X141716103Y-114166717D01*
X141690034Y-114202915D01*
X141682514Y-114242748D01*
X141543233Y-114242748D01*
X141547194Y-114206027D01*
X141571550Y-114136212D01*
X141605456Y-114087302D01*
X141666653Y-114037878D01*
X141734063Y-114013359D01*
X141802880Y-114011797D01*
X141868303Y-114031239D01*
G36*
X143075886Y-113951289D02*
X143080139Y-114010613D01*
X143085025Y-114045572D01*
X143091795Y-114060820D01*
X143101702Y-114061015D01*
X143104914Y-114059195D01*
X143147644Y-114046015D01*
X143203227Y-114046785D01*
X143259737Y-114060333D01*
X143295082Y-114077861D01*
X143331321Y-114105861D01*
X143357813Y-114137549D01*
X143375999Y-114177813D01*
X143387322Y-114231543D01*
X143393222Y-114303626D01*
X143395143Y-114398951D01*
X143395177Y-114417237D01*
X143395200Y-114622646D01*
X143349491Y-114638580D01*
X143317027Y-114649420D01*
X143299215Y-114654468D01*
X143298691Y-114654514D01*
X143296937Y-114640828D01*
X143295444Y-114603076D01*
X143294326Y-114546224D01*
X143293697Y-114475234D01*
X143293600Y-114432073D01*
X143293398Y-114346973D01*
X143292358Y-114285981D01*
X143289831Y-114244177D01*
X143285164Y-114216642D01*
X143277707Y-114198456D01*
X143266811Y-114184698D01*
X143260007Y-114178073D01*
X143213272Y-114151375D01*
X143162272Y-114149375D01*
X143116001Y-114171955D01*
X143107444Y-114180107D01*
X143094893Y-114195436D01*
X143086188Y-114213618D01*
X143080631Y-114239909D01*
X143077526Y-114279562D01*
X143076176Y-114337832D01*
X143075886Y-114418173D01*
X143075886Y-114622646D01*
X143030177Y-114638580D01*
X142997713Y-114649420D01*
X142979901Y-114654468D01*
X142979377Y-114654514D01*
X142978037Y-114640623D01*
X142976828Y-114601439D01*
X142975801Y-114540700D01*
X142975002Y-114462141D01*
X142974481Y-114369498D01*
X142974286Y-114266509D01*
X142974286Y-113869342D01*
X143021457Y-113849444D01*
X143068629Y-113829547D01*
X143075886Y-113951289D01*
X143075886Y-113951289D01*
G37*
X143075886Y-113951289D02*
X143080139Y-114010613D01*
X143085025Y-114045572D01*
X143091795Y-114060820D01*
X143101702Y-114061015D01*
X143104914Y-114059195D01*
X143147644Y-114046015D01*
X143203227Y-114046785D01*
X143259737Y-114060333D01*
X143295082Y-114077861D01*
X143331321Y-114105861D01*
X143357813Y-114137549D01*
X143375999Y-114177813D01*
X143387322Y-114231543D01*
X143393222Y-114303626D01*
X143395143Y-114398951D01*
X143395177Y-114417237D01*
X143395200Y-114622646D01*
X143349491Y-114638580D01*
X143317027Y-114649420D01*
X143299215Y-114654468D01*
X143298691Y-114654514D01*
X143296937Y-114640828D01*
X143295444Y-114603076D01*
X143294326Y-114546224D01*
X143293697Y-114475234D01*
X143293600Y-114432073D01*
X143293398Y-114346973D01*
X143292358Y-114285981D01*
X143289831Y-114244177D01*
X143285164Y-114216642D01*
X143277707Y-114198456D01*
X143266811Y-114184698D01*
X143260007Y-114178073D01*
X143213272Y-114151375D01*
X143162272Y-114149375D01*
X143116001Y-114171955D01*
X143107444Y-114180107D01*
X143094893Y-114195436D01*
X143086188Y-114213618D01*
X143080631Y-114239909D01*
X143077526Y-114279562D01*
X143076176Y-114337832D01*
X143075886Y-114418173D01*
X143075886Y-114622646D01*
X143030177Y-114638580D01*
X142997713Y-114649420D01*
X142979901Y-114654468D01*
X142979377Y-114654514D01*
X142978037Y-114640623D01*
X142976828Y-114601439D01*
X142975801Y-114540700D01*
X142975002Y-114462141D01*
X142974481Y-114369498D01*
X142974286Y-114266509D01*
X142974286Y-113869342D01*
X143021457Y-113849444D01*
X143068629Y-113829547D01*
X143075886Y-113951289D01*
G36*
X143739744Y-114050968D02*
X143796616Y-114072087D01*
X143797267Y-114072493D01*
X143832440Y-114098380D01*
X143858407Y-114128633D01*
X143876670Y-114168058D01*
X143888732Y-114221462D01*
X143896096Y-114293651D01*
X143900264Y-114389432D01*
X143900629Y-114403078D01*
X143905876Y-114608842D01*
X143861716Y-114631678D01*
X143829763Y-114647110D01*
X143810470Y-114654423D01*
X143809578Y-114654514D01*
X143806239Y-114641022D01*
X143803587Y-114604626D01*
X143801956Y-114551452D01*
X143801600Y-114508393D01*
X143801592Y-114438641D01*
X143798403Y-114394837D01*
X143787288Y-114373944D01*
X143763501Y-114372925D01*
X143722296Y-114388741D01*
X143660086Y-114417815D01*
X143614341Y-114441963D01*
X143590813Y-114462913D01*
X143583896Y-114485747D01*
X143583886Y-114486877D01*
X143595299Y-114526212D01*
X143629092Y-114547462D01*
X143680809Y-114550539D01*
X143718061Y-114550006D01*
X143737703Y-114560735D01*
X143749952Y-114586505D01*
X143757002Y-114619337D01*
X143746842Y-114637966D01*
X143743017Y-114640632D01*
X143707001Y-114651340D01*
X143656566Y-114652856D01*
X143604626Y-114645759D01*
X143567822Y-114632788D01*
X143516938Y-114589585D01*
X143488014Y-114529446D01*
X143482286Y-114482462D01*
X143486657Y-114440082D01*
X143502475Y-114405488D01*
X143533797Y-114374763D01*
X143584678Y-114343990D01*
X143659176Y-114309252D01*
X143663714Y-114307288D01*
X143730821Y-114276287D01*
X143772232Y-114250862D01*
X143789981Y-114228014D01*
X143786107Y-114204745D01*
X143762643Y-114178056D01*
X143755627Y-114171914D01*
X143708630Y-114148100D01*
X143659933Y-114149103D01*
X143617522Y-114172451D01*
X143589384Y-114215675D01*
X143586769Y-114224160D01*
X143561308Y-114265308D01*
X143529001Y-114285128D01*
X143482286Y-114304770D01*
X143482286Y-114253950D01*
X143496496Y-114180082D01*
X143538675Y-114112327D01*
X143560624Y-114089661D01*
X143610517Y-114060569D01*
X143673967Y-114047400D01*
X143739744Y-114050968D01*
X143739744Y-114050968D01*
G37*
X143739744Y-114050968D02*
X143796616Y-114072087D01*
X143797267Y-114072493D01*
X143832440Y-114098380D01*
X143858407Y-114128633D01*
X143876670Y-114168058D01*
X143888732Y-114221462D01*
X143896096Y-114293651D01*
X143900264Y-114389432D01*
X143900629Y-114403078D01*
X143905876Y-114608842D01*
X143861716Y-114631678D01*
X143829763Y-114647110D01*
X143810470Y-114654423D01*
X143809578Y-114654514D01*
X143806239Y-114641022D01*
X143803587Y-114604626D01*
X143801956Y-114551452D01*
X143801600Y-114508393D01*
X143801592Y-114438641D01*
X143798403Y-114394837D01*
X143787288Y-114373944D01*
X143763501Y-114372925D01*
X143722296Y-114388741D01*
X143660086Y-114417815D01*
X143614341Y-114441963D01*
X143590813Y-114462913D01*
X143583896Y-114485747D01*
X143583886Y-114486877D01*
X143595299Y-114526212D01*
X143629092Y-114547462D01*
X143680809Y-114550539D01*
X143718061Y-114550006D01*
X143737703Y-114560735D01*
X143749952Y-114586505D01*
X143757002Y-114619337D01*
X143746842Y-114637966D01*
X143743017Y-114640632D01*
X143707001Y-114651340D01*
X143656566Y-114652856D01*
X143604626Y-114645759D01*
X143567822Y-114632788D01*
X143516938Y-114589585D01*
X143488014Y-114529446D01*
X143482286Y-114482462D01*
X143486657Y-114440082D01*
X143502475Y-114405488D01*
X143533797Y-114374763D01*
X143584678Y-114343990D01*
X143659176Y-114309252D01*
X143663714Y-114307288D01*
X143730821Y-114276287D01*
X143772232Y-114250862D01*
X143789981Y-114228014D01*
X143786107Y-114204745D01*
X143762643Y-114178056D01*
X143755627Y-114171914D01*
X143708630Y-114148100D01*
X143659933Y-114149103D01*
X143617522Y-114172451D01*
X143589384Y-114215675D01*
X143586769Y-114224160D01*
X143561308Y-114265308D01*
X143529001Y-114285128D01*
X143482286Y-114304770D01*
X143482286Y-114253950D01*
X143496496Y-114180082D01*
X143538675Y-114112327D01*
X143560624Y-114089661D01*
X143610517Y-114060569D01*
X143673967Y-114047400D01*
X143739744Y-114050968D01*
G36*
X144229926Y-114049755D02*
X144295858Y-114074084D01*
X144349273Y-114117117D01*
X144370164Y-114147409D01*
X144392939Y-114202994D01*
X144392466Y-114243186D01*
X144368562Y-114270217D01*
X144359717Y-114274813D01*
X144321530Y-114289144D01*
X144302028Y-114285472D01*
X144295422Y-114261407D01*
X144295086Y-114248114D01*
X144282992Y-114199210D01*
X144251471Y-114164999D01*
X144207659Y-114148476D01*
X144158695Y-114152634D01*
X144118894Y-114174227D01*
X144105450Y-114186544D01*
X144095921Y-114201487D01*
X144089485Y-114224075D01*
X144085317Y-114259328D01*
X144082597Y-114312266D01*
X144080502Y-114387907D01*
X144079960Y-114411857D01*
X144077981Y-114493790D01*
X144075731Y-114551455D01*
X144072357Y-114589608D01*
X144067006Y-114613004D01*
X144058824Y-114626398D01*
X144046959Y-114634545D01*
X144039362Y-114638144D01*
X144007102Y-114650452D01*
X143988111Y-114654514D01*
X143981836Y-114640948D01*
X143978006Y-114599934D01*
X143976600Y-114530999D01*
X143977598Y-114433669D01*
X143977908Y-114418657D01*
X143980101Y-114329859D01*
X143982693Y-114265019D01*
X143986382Y-114219067D01*
X143991864Y-114186935D01*
X143999835Y-114163553D01*
X144010993Y-114143852D01*
X144016830Y-114135410D01*
X144050296Y-114098057D01*
X144087727Y-114069003D01*
X144092309Y-114066467D01*
X144159426Y-114046443D01*
X144229926Y-114049755D01*
X144229926Y-114049755D01*
G37*
X144229926Y-114049755D02*
X144295858Y-114074084D01*
X144349273Y-114117117D01*
X144370164Y-114147409D01*
X144392939Y-114202994D01*
X144392466Y-114243186D01*
X144368562Y-114270217D01*
X144359717Y-114274813D01*
X144321530Y-114289144D01*
X144302028Y-114285472D01*
X144295422Y-114261407D01*
X144295086Y-114248114D01*
X144282992Y-114199210D01*
X144251471Y-114164999D01*
X144207659Y-114148476D01*
X144158695Y-114152634D01*
X144118894Y-114174227D01*
X144105450Y-114186544D01*
X144095921Y-114201487D01*
X144089485Y-114224075D01*
X144085317Y-114259328D01*
X144082597Y-114312266D01*
X144080502Y-114387907D01*
X144079960Y-114411857D01*
X144077981Y-114493790D01*
X144075731Y-114551455D01*
X144072357Y-114589608D01*
X144067006Y-114613004D01*
X144058824Y-114626398D01*
X144046959Y-114634545D01*
X144039362Y-114638144D01*
X144007102Y-114650452D01*
X143988111Y-114654514D01*
X143981836Y-114640948D01*
X143978006Y-114599934D01*
X143976600Y-114530999D01*
X143977598Y-114433669D01*
X143977908Y-114418657D01*
X143980101Y-114329859D01*
X143982693Y-114265019D01*
X143986382Y-114219067D01*
X143991864Y-114186935D01*
X143999835Y-114163553D01*
X144010993Y-114143852D01*
X144016830Y-114135410D01*
X144050296Y-114098057D01*
X144087727Y-114069003D01*
X144092309Y-114066467D01*
X144159426Y-114046443D01*
X144229926Y-114049755D01*
G36*
X144890117Y-114165358D02*
X144889933Y-114273837D01*
X144889219Y-114357287D01*
X144887675Y-114419704D01*
X144885001Y-114465085D01*
X144880894Y-114497429D01*
X144875055Y-114520733D01*
X144867182Y-114538995D01*
X144861221Y-114549418D01*
X144811855Y-114605945D01*
X144749264Y-114641377D01*
X144680013Y-114654090D01*
X144610668Y-114642463D01*
X144569375Y-114621568D01*
X144526025Y-114585422D01*
X144496481Y-114541276D01*
X144478655Y-114483462D01*
X144470463Y-114406313D01*
X144469302Y-114349714D01*
X144469458Y-114345647D01*
X144570857Y-114345647D01*
X144571476Y-114410550D01*
X144574314Y-114453514D01*
X144580840Y-114481622D01*
X144592523Y-114501953D01*
X144606483Y-114517288D01*
X144653365Y-114546890D01*
X144703701Y-114549419D01*
X144751276Y-114524705D01*
X144754979Y-114521356D01*
X144770783Y-114503935D01*
X144780693Y-114483209D01*
X144786058Y-114452362D01*
X144788228Y-114404577D01*
X144788571Y-114351748D01*
X144787827Y-114285381D01*
X144784748Y-114241106D01*
X144778061Y-114212009D01*
X144766496Y-114191173D01*
X144757013Y-114180107D01*
X144712960Y-114152198D01*
X144662224Y-114148843D01*
X144613796Y-114170159D01*
X144604450Y-114178073D01*
X144588540Y-114195647D01*
X144578610Y-114216587D01*
X144573278Y-114247782D01*
X144571163Y-114296122D01*
X144570857Y-114345647D01*
X144469458Y-114345647D01*
X144472810Y-114258568D01*
X144484726Y-114190086D01*
X144507135Y-114138600D01*
X144542124Y-114098443D01*
X144569375Y-114077861D01*
X144618907Y-114055625D01*
X144676316Y-114045304D01*
X144729682Y-114048067D01*
X144759543Y-114059212D01*
X144771261Y-114062383D01*
X144779037Y-114050557D01*
X144784465Y-114018866D01*
X144788571Y-113970593D01*
X144793067Y-113916829D01*
X144799313Y-113884482D01*
X144810676Y-113865985D01*
X144830528Y-113853770D01*
X144843000Y-113848362D01*
X144890171Y-113828601D01*
X144890117Y-114165358D01*
X144890117Y-114165358D01*
G37*
X144890117Y-114165358D02*
X144889933Y-114273837D01*
X144889219Y-114357287D01*
X144887675Y-114419704D01*
X144885001Y-114465085D01*
X144880894Y-114497429D01*
X144875055Y-114520733D01*
X144867182Y-114538995D01*
X144861221Y-114549418D01*
X144811855Y-114605945D01*
X144749264Y-114641377D01*
X144680013Y-114654090D01*
X144610668Y-114642463D01*
X144569375Y-114621568D01*
X144526025Y-114585422D01*
X144496481Y-114541276D01*
X144478655Y-114483462D01*
X144470463Y-114406313D01*
X144469302Y-114349714D01*
X144469458Y-114345647D01*
X144570857Y-114345647D01*
X144571476Y-114410550D01*
X144574314Y-114453514D01*
X144580840Y-114481622D01*
X144592523Y-114501953D01*
X144606483Y-114517288D01*
X144653365Y-114546890D01*
X144703701Y-114549419D01*
X144751276Y-114524705D01*
X144754979Y-114521356D01*
X144770783Y-114503935D01*
X144780693Y-114483209D01*
X144786058Y-114452362D01*
X144788228Y-114404577D01*
X144788571Y-114351748D01*
X144787827Y-114285381D01*
X144784748Y-114241106D01*
X144778061Y-114212009D01*
X144766496Y-114191173D01*
X144757013Y-114180107D01*
X144712960Y-114152198D01*
X144662224Y-114148843D01*
X144613796Y-114170159D01*
X144604450Y-114178073D01*
X144588540Y-114195647D01*
X144578610Y-114216587D01*
X144573278Y-114247782D01*
X144571163Y-114296122D01*
X144570857Y-114345647D01*
X144469458Y-114345647D01*
X144472810Y-114258568D01*
X144484726Y-114190086D01*
X144507135Y-114138600D01*
X144542124Y-114098443D01*
X144569375Y-114077861D01*
X144618907Y-114055625D01*
X144676316Y-114045304D01*
X144729682Y-114048067D01*
X144759543Y-114059212D01*
X144771261Y-114062383D01*
X144779037Y-114050557D01*
X144784465Y-114018866D01*
X144788571Y-113970593D01*
X144793067Y-113916829D01*
X144799313Y-113884482D01*
X144810676Y-113865985D01*
X144830528Y-113853770D01*
X144843000Y-113848362D01*
X144890171Y-113828601D01*
X144890117Y-114165358D01*
G36*
X145479833Y-114058663D02*
X145482048Y-114096850D01*
X145483784Y-114154886D01*
X145484899Y-114228180D01*
X145485257Y-114305055D01*
X145485257Y-114565196D01*
X145439326Y-114611127D01*
X145407675Y-114639429D01*
X145379890Y-114650893D01*
X145341915Y-114650168D01*
X145326840Y-114648321D01*
X145279726Y-114642948D01*
X145240756Y-114639869D01*
X145231257Y-114639585D01*
X145199233Y-114641445D01*
X145153432Y-114646114D01*
X145135674Y-114648321D01*
X145092057Y-114651735D01*
X145062745Y-114644320D01*
X145033680Y-114621427D01*
X145023188Y-114611127D01*
X144977257Y-114565196D01*
X144977257Y-114078602D01*
X145014226Y-114061758D01*
X145046059Y-114049282D01*
X145064683Y-114044914D01*
X145069458Y-114058718D01*
X145073921Y-114097286D01*
X145077775Y-114156356D01*
X145080722Y-114231663D01*
X145082143Y-114295286D01*
X145086114Y-114545657D01*
X145120759Y-114550556D01*
X145152268Y-114547131D01*
X145167708Y-114536041D01*
X145172023Y-114515308D01*
X145175708Y-114471145D01*
X145178469Y-114409146D01*
X145180012Y-114334909D01*
X145180235Y-114296706D01*
X145180457Y-114076783D01*
X145226166Y-114060849D01*
X145258518Y-114050015D01*
X145276115Y-114044962D01*
X145276623Y-114044914D01*
X145278388Y-114058648D01*
X145280329Y-114096730D01*
X145282282Y-114154482D01*
X145284084Y-114227227D01*
X145285343Y-114295286D01*
X145289314Y-114545657D01*
X145376400Y-114545657D01*
X145380396Y-114317240D01*
X145384392Y-114088822D01*
X145426847Y-114066868D01*
X145458192Y-114051793D01*
X145476744Y-114044951D01*
X145477279Y-114044914D01*
X145479833Y-114058663D01*
X145479833Y-114058663D01*
G37*
X145479833Y-114058663D02*
X145482048Y-114096850D01*
X145483784Y-114154886D01*
X145484899Y-114228180D01*
X145485257Y-114305055D01*
X145485257Y-114565196D01*
X145439326Y-114611127D01*
X145407675Y-114639429D01*
X145379890Y-114650893D01*
X145341915Y-114650168D01*
X145326840Y-114648321D01*
X145279726Y-114642948D01*
X145240756Y-114639869D01*
X145231257Y-114639585D01*
X145199233Y-114641445D01*
X145153432Y-114646114D01*
X145135674Y-114648321D01*
X145092057Y-114651735D01*
X145062745Y-114644320D01*
X145033680Y-114621427D01*
X145023188Y-114611127D01*
X144977257Y-114565196D01*
X144977257Y-114078602D01*
X145014226Y-114061758D01*
X145046059Y-114049282D01*
X145064683Y-114044914D01*
X145069458Y-114058718D01*
X145073921Y-114097286D01*
X145077775Y-114156356D01*
X145080722Y-114231663D01*
X145082143Y-114295286D01*
X145086114Y-114545657D01*
X145120759Y-114550556D01*
X145152268Y-114547131D01*
X145167708Y-114536041D01*
X145172023Y-114515308D01*
X145175708Y-114471145D01*
X145178469Y-114409146D01*
X145180012Y-114334909D01*
X145180235Y-114296706D01*
X145180457Y-114076783D01*
X145226166Y-114060849D01*
X145258518Y-114050015D01*
X145276115Y-114044962D01*
X145276623Y-114044914D01*
X145278388Y-114058648D01*
X145280329Y-114096730D01*
X145282282Y-114154482D01*
X145284084Y-114227227D01*
X145285343Y-114295286D01*
X145289314Y-114545657D01*
X145376400Y-114545657D01*
X145380396Y-114317240D01*
X145384392Y-114088822D01*
X145426847Y-114066868D01*
X145458192Y-114051793D01*
X145476744Y-114044951D01*
X145477279Y-114044914D01*
X145479833Y-114058663D01*
G36*
X145844876Y-114056335D02*
X145886667Y-114075344D01*
X145919469Y-114098378D01*
X145943503Y-114124133D01*
X145960097Y-114157358D01*
X145970577Y-114202800D01*
X145976271Y-114265207D01*
X145978507Y-114349327D01*
X145978743Y-114404721D01*
X145978743Y-114620826D01*
X145941774Y-114637670D01*
X145912656Y-114649981D01*
X145898231Y-114654514D01*
X145895472Y-114641025D01*
X145893282Y-114604653D01*
X145891942Y-114551542D01*
X145891657Y-114509372D01*
X145890434Y-114448447D01*
X145887136Y-114400115D01*
X145882321Y-114370518D01*
X145878496Y-114364229D01*
X145852783Y-114370652D01*
X145812418Y-114387125D01*
X145765679Y-114409458D01*
X145720845Y-114433457D01*
X145686193Y-114454930D01*
X145670002Y-114469685D01*
X145669938Y-114469845D01*
X145671330Y-114497152D01*
X145683818Y-114523219D01*
X145705743Y-114544392D01*
X145737743Y-114551474D01*
X145765092Y-114550649D01*
X145803826Y-114550042D01*
X145824158Y-114559116D01*
X145836369Y-114583092D01*
X145837909Y-114587613D01*
X145843203Y-114621806D01*
X145829047Y-114642568D01*
X145792148Y-114652462D01*
X145752289Y-114654292D01*
X145680562Y-114640727D01*
X145643432Y-114621355D01*
X145597576Y-114575845D01*
X145573256Y-114519983D01*
X145571073Y-114460957D01*
X145591629Y-114405953D01*
X145622549Y-114371486D01*
X145653420Y-114352189D01*
X145701942Y-114327759D01*
X145758485Y-114302985D01*
X145767910Y-114299199D01*
X145830019Y-114271791D01*
X145865822Y-114247634D01*
X145877337Y-114223619D01*
X145866580Y-114196635D01*
X145848114Y-114175543D01*
X145804469Y-114149572D01*
X145756446Y-114147624D01*
X145712406Y-114167637D01*
X145680709Y-114207551D01*
X145676549Y-114217848D01*
X145652327Y-114255724D01*
X145616965Y-114283842D01*
X145572343Y-114306917D01*
X145572343Y-114241485D01*
X145574969Y-114201506D01*
X145586230Y-114169997D01*
X145611199Y-114136378D01*
X145635169Y-114110484D01*
X145672441Y-114073817D01*
X145701401Y-114054121D01*
X145732505Y-114046220D01*
X145767713Y-114044914D01*
X145844876Y-114056335D01*
X145844876Y-114056335D01*
G37*
X145844876Y-114056335D02*
X145886667Y-114075344D01*
X145919469Y-114098378D01*
X145943503Y-114124133D01*
X145960097Y-114157358D01*
X145970577Y-114202800D01*
X145976271Y-114265207D01*
X145978507Y-114349327D01*
X145978743Y-114404721D01*
X145978743Y-114620826D01*
X145941774Y-114637670D01*
X145912656Y-114649981D01*
X145898231Y-114654514D01*
X145895472Y-114641025D01*
X145893282Y-114604653D01*
X145891942Y-114551542D01*
X145891657Y-114509372D01*
X145890434Y-114448447D01*
X145887136Y-114400115D01*
X145882321Y-114370518D01*
X145878496Y-114364229D01*
X145852783Y-114370652D01*
X145812418Y-114387125D01*
X145765679Y-114409458D01*
X145720845Y-114433457D01*
X145686193Y-114454930D01*
X145670002Y-114469685D01*
X145669938Y-114469845D01*
X145671330Y-114497152D01*
X145683818Y-114523219D01*
X145705743Y-114544392D01*
X145737743Y-114551474D01*
X145765092Y-114550649D01*
X145803826Y-114550042D01*
X145824158Y-114559116D01*
X145836369Y-114583092D01*
X145837909Y-114587613D01*
X145843203Y-114621806D01*
X145829047Y-114642568D01*
X145792148Y-114652462D01*
X145752289Y-114654292D01*
X145680562Y-114640727D01*
X145643432Y-114621355D01*
X145597576Y-114575845D01*
X145573256Y-114519983D01*
X145571073Y-114460957D01*
X145591629Y-114405953D01*
X145622549Y-114371486D01*
X145653420Y-114352189D01*
X145701942Y-114327759D01*
X145758485Y-114302985D01*
X145767910Y-114299199D01*
X145830019Y-114271791D01*
X145865822Y-114247634D01*
X145877337Y-114223619D01*
X145866580Y-114196635D01*
X145848114Y-114175543D01*
X145804469Y-114149572D01*
X145756446Y-114147624D01*
X145712406Y-114167637D01*
X145680709Y-114207551D01*
X145676549Y-114217848D01*
X145652327Y-114255724D01*
X145616965Y-114283842D01*
X145572343Y-114306917D01*
X145572343Y-114241485D01*
X145574969Y-114201506D01*
X145586230Y-114169997D01*
X145611199Y-114136378D01*
X145635169Y-114110484D01*
X145672441Y-114073817D01*
X145701401Y-114054121D01*
X145732505Y-114046220D01*
X145767713Y-114044914D01*
X145844876Y-114056335D01*
G36*
X146352600Y-114058752D02*
X146369948Y-114066334D01*
X146411356Y-114099128D01*
X146446765Y-114146547D01*
X146468664Y-114197151D01*
X146472229Y-114222098D01*
X146460279Y-114256927D01*
X146434067Y-114275357D01*
X146405964Y-114286516D01*
X146393095Y-114288572D01*
X146386829Y-114273649D01*
X146374456Y-114241175D01*
X146369028Y-114226502D01*
X146338590Y-114175744D01*
X146294520Y-114150427D01*
X146238010Y-114151206D01*
X146233825Y-114152203D01*
X146203655Y-114166507D01*
X146181476Y-114194393D01*
X146166327Y-114239287D01*
X146157250Y-114304615D01*
X146153286Y-114393804D01*
X146152914Y-114441261D01*
X146152730Y-114516071D01*
X146151522Y-114567069D01*
X146148309Y-114599471D01*
X146142109Y-114618495D01*
X146131940Y-114629356D01*
X146116819Y-114637272D01*
X146115946Y-114637670D01*
X146086828Y-114649981D01*
X146072403Y-114654514D01*
X146070186Y-114640809D01*
X146068289Y-114602925D01*
X146066847Y-114545715D01*
X146065998Y-114474027D01*
X146065829Y-114421565D01*
X146066692Y-114320047D01*
X146070070Y-114243032D01*
X146077142Y-114186023D01*
X146089088Y-114144526D01*
X146107090Y-114114043D01*
X146132327Y-114090080D01*
X146157247Y-114073355D01*
X146217171Y-114051097D01*
X146286911Y-114046076D01*
X146352600Y-114058752D01*
X146352600Y-114058752D01*
G37*
X146352600Y-114058752D02*
X146369948Y-114066334D01*
X146411356Y-114099128D01*
X146446765Y-114146547D01*
X146468664Y-114197151D01*
X146472229Y-114222098D01*
X146460279Y-114256927D01*
X146434067Y-114275357D01*
X146405964Y-114286516D01*
X146393095Y-114288572D01*
X146386829Y-114273649D01*
X146374456Y-114241175D01*
X146369028Y-114226502D01*
X146338590Y-114175744D01*
X146294520Y-114150427D01*
X146238010Y-114151206D01*
X146233825Y-114152203D01*
X146203655Y-114166507D01*
X146181476Y-114194393D01*
X146166327Y-114239287D01*
X146157250Y-114304615D01*
X146153286Y-114393804D01*
X146152914Y-114441261D01*
X146152730Y-114516071D01*
X146151522Y-114567069D01*
X146148309Y-114599471D01*
X146142109Y-114618495D01*
X146131940Y-114629356D01*
X146116819Y-114637272D01*
X146115946Y-114637670D01*
X146086828Y-114649981D01*
X146072403Y-114654514D01*
X146070186Y-114640809D01*
X146068289Y-114602925D01*
X146066847Y-114545715D01*
X146065998Y-114474027D01*
X146065829Y-114421565D01*
X146066692Y-114320047D01*
X146070070Y-114243032D01*
X146077142Y-114186023D01*
X146089088Y-114144526D01*
X146107090Y-114114043D01*
X146132327Y-114090080D01*
X146157247Y-114073355D01*
X146217171Y-114051097D01*
X146286911Y-114046076D01*
X146352600Y-114058752D01*
G36*
X146853595Y-114066966D02*
X146911021Y-114104497D01*
X146938719Y-114138096D01*
X146960662Y-114199064D01*
X146962405Y-114247308D01*
X146958457Y-114311816D01*
X146809686Y-114376934D01*
X146737349Y-114410202D01*
X146690084Y-114436964D01*
X146665507Y-114460144D01*
X146661237Y-114482667D01*
X146674889Y-114507455D01*
X146689943Y-114523886D01*
X146733746Y-114550235D01*
X146781389Y-114552081D01*
X146825145Y-114531546D01*
X146857289Y-114490752D01*
X146863038Y-114476347D01*
X146890576Y-114431356D01*
X146922258Y-114412182D01*
X146965714Y-114395779D01*
X146965714Y-114457966D01*
X146961872Y-114500283D01*
X146946823Y-114535969D01*
X146915280Y-114576943D01*
X146910592Y-114582267D01*
X146875506Y-114618720D01*
X146845347Y-114638283D01*
X146807615Y-114647283D01*
X146776335Y-114650230D01*
X146720385Y-114650965D01*
X146680555Y-114641660D01*
X146655708Y-114627846D01*
X146616656Y-114597467D01*
X146589625Y-114564613D01*
X146572517Y-114523294D01*
X146563238Y-114467521D01*
X146559693Y-114391305D01*
X146559410Y-114352622D01*
X146560372Y-114306247D01*
X146648007Y-114306247D01*
X146649023Y-114331126D01*
X146651556Y-114335200D01*
X146668274Y-114329665D01*
X146704249Y-114315017D01*
X146752331Y-114294190D01*
X146762386Y-114289714D01*
X146823152Y-114258814D01*
X146856632Y-114231657D01*
X146863990Y-114206220D01*
X146846391Y-114180481D01*
X146831856Y-114169109D01*
X146779410Y-114146364D01*
X146730322Y-114150122D01*
X146689227Y-114177884D01*
X146660758Y-114227152D01*
X146651631Y-114266257D01*
X146648007Y-114306247D01*
X146560372Y-114306247D01*
X146561285Y-114262249D01*
X146568196Y-114195384D01*
X146581884Y-114146695D01*
X146604096Y-114110849D01*
X146636574Y-114082513D01*
X146650733Y-114073355D01*
X146715053Y-114049507D01*
X146785473Y-114048006D01*
X146853595Y-114066966D01*
X146853595Y-114066966D01*
G37*
X146853595Y-114066966D02*
X146911021Y-114104497D01*
X146938719Y-114138096D01*
X146960662Y-114199064D01*
X146962405Y-114247308D01*
X146958457Y-114311816D01*
X146809686Y-114376934D01*
X146737349Y-114410202D01*
X146690084Y-114436964D01*
X146665507Y-114460144D01*
X146661237Y-114482667D01*
X146674889Y-114507455D01*
X146689943Y-114523886D01*
X146733746Y-114550235D01*
X146781389Y-114552081D01*
X146825145Y-114531546D01*
X146857289Y-114490752D01*
X146863038Y-114476347D01*
X146890576Y-114431356D01*
X146922258Y-114412182D01*
X146965714Y-114395779D01*
X146965714Y-114457966D01*
X146961872Y-114500283D01*
X146946823Y-114535969D01*
X146915280Y-114576943D01*
X146910592Y-114582267D01*
X146875506Y-114618720D01*
X146845347Y-114638283D01*
X146807615Y-114647283D01*
X146776335Y-114650230D01*
X146720385Y-114650965D01*
X146680555Y-114641660D01*
X146655708Y-114627846D01*
X146616656Y-114597467D01*
X146589625Y-114564613D01*
X146572517Y-114523294D01*
X146563238Y-114467521D01*
X146559693Y-114391305D01*
X146559410Y-114352622D01*
X146560372Y-114306247D01*
X146648007Y-114306247D01*
X146649023Y-114331126D01*
X146651556Y-114335200D01*
X146668274Y-114329665D01*
X146704249Y-114315017D01*
X146752331Y-114294190D01*
X146762386Y-114289714D01*
X146823152Y-114258814D01*
X146856632Y-114231657D01*
X146863990Y-114206220D01*
X146846391Y-114180481D01*
X146831856Y-114169109D01*
X146779410Y-114146364D01*
X146730322Y-114150122D01*
X146689227Y-114177884D01*
X146660758Y-114227152D01*
X146651631Y-114266257D01*
X146648007Y-114306247D01*
X146560372Y-114306247D01*
X146561285Y-114262249D01*
X146568196Y-114195384D01*
X146581884Y-114146695D01*
X146604096Y-114110849D01*
X146636574Y-114082513D01*
X146650733Y-114073355D01*
X146715053Y-114049507D01*
X146785473Y-114048006D01*
X146853595Y-114066966D01*
G36*
X143803910Y-109342348D02*
X143882454Y-109342778D01*
X143939298Y-109343942D01*
X143978105Y-109346207D01*
X144002538Y-109349940D01*
X144016262Y-109355506D01*
X144022940Y-109363273D01*
X144026236Y-109373605D01*
X144026556Y-109374943D01*
X144031562Y-109399079D01*
X144040829Y-109446701D01*
X144053392Y-109512741D01*
X144068287Y-109592128D01*
X144084551Y-109679796D01*
X144085119Y-109682875D01*
X144101410Y-109768789D01*
X144116652Y-109844696D01*
X144129861Y-109906045D01*
X144140054Y-109948282D01*
X144146248Y-109966855D01*
X144146543Y-109967184D01*
X144164788Y-109976253D01*
X144202405Y-109991367D01*
X144251271Y-110009262D01*
X144251543Y-110009358D01*
X144313093Y-110032493D01*
X144385657Y-110061965D01*
X144454057Y-110091597D01*
X144457294Y-110093062D01*
X144568702Y-110143626D01*
X144815399Y-109975160D01*
X144891077Y-109923803D01*
X144959631Y-109877889D01*
X145017088Y-109840030D01*
X145059476Y-109812837D01*
X145082825Y-109798921D01*
X145085042Y-109797889D01*
X145102010Y-109802484D01*
X145133701Y-109824655D01*
X145181352Y-109865447D01*
X145246198Y-109925905D01*
X145312397Y-109990227D01*
X145376214Y-110053612D01*
X145433329Y-110111451D01*
X145480305Y-110160175D01*
X145513703Y-110196210D01*
X145530085Y-110215984D01*
X145530694Y-110217002D01*
X145532505Y-110230572D01*
X145525683Y-110252733D01*
X145508540Y-110286478D01*
X145479393Y-110334800D01*
X145436555Y-110400692D01*
X145379448Y-110485517D01*
X145328766Y-110560177D01*
X145283461Y-110627140D01*
X145246150Y-110682516D01*
X145219452Y-110722420D01*
X145205985Y-110742962D01*
X145205137Y-110744356D01*
X145206781Y-110764038D01*
X145219245Y-110802293D01*
X145240048Y-110851889D01*
X145247462Y-110867728D01*
X145279814Y-110938290D01*
X145314328Y-111018353D01*
X145342365Y-111087629D01*
X145362568Y-111139045D01*
X145378615Y-111178119D01*
X145387888Y-111198541D01*
X145389041Y-111200114D01*
X145406096Y-111202721D01*
X145446298Y-111209863D01*
X145504302Y-111220523D01*
X145574763Y-111233685D01*
X145652335Y-111248333D01*
X145731672Y-111263449D01*
X145807431Y-111278018D01*
X145874264Y-111291022D01*
X145926828Y-111301445D01*
X145959776Y-111308270D01*
X145967857Y-111310199D01*
X145976205Y-111314962D01*
X145982506Y-111325718D01*
X145987045Y-111346098D01*
X145990104Y-111379734D01*
X145991967Y-111430255D01*
X145992918Y-111501292D01*
X145993240Y-111596476D01*
X145993257Y-111635492D01*
X145993257Y-111952799D01*
X145917057Y-111967839D01*
X145874663Y-111975995D01*
X145811400Y-111987899D01*
X145734962Y-112002116D01*
X145653043Y-112017210D01*
X145630400Y-112021355D01*
X145554806Y-112036053D01*
X145488953Y-112050505D01*
X145438366Y-112063375D01*
X145408574Y-112073322D01*
X145403612Y-112076287D01*
X145391426Y-112097283D01*
X145373953Y-112137967D01*
X145354577Y-112190322D01*
X145350734Y-112201600D01*
X145325339Y-112271523D01*
X145293817Y-112350418D01*
X145262969Y-112421266D01*
X145262817Y-112421595D01*
X145211447Y-112532733D01*
X145380399Y-112781253D01*
X145549352Y-113029772D01*
X145332429Y-113247058D01*
X145266819Y-113311726D01*
X145206979Y-113368733D01*
X145156267Y-113415033D01*
X145118046Y-113447584D01*
X145095675Y-113463343D01*
X145092466Y-113464343D01*
X145073626Y-113456469D01*
X145035180Y-113434578D01*
X144981330Y-113401267D01*
X144916276Y-113359131D01*
X144845940Y-113311943D01*
X144774555Y-113263810D01*
X144710908Y-113221928D01*
X144659041Y-113188871D01*
X144622995Y-113167218D01*
X144606867Y-113159543D01*
X144587189Y-113166037D01*
X144549875Y-113183150D01*
X144502621Y-113207326D01*
X144497612Y-113210013D01*
X144433977Y-113241927D01*
X144390341Y-113257579D01*
X144363202Y-113257745D01*
X144349057Y-113243204D01*
X144348975Y-113243000D01*
X144341905Y-113225779D01*
X144325042Y-113184899D01*
X144299695Y-113123525D01*
X144267171Y-113044819D01*
X144228778Y-112951947D01*
X144185822Y-112848072D01*
X144144222Y-112747502D01*
X144098504Y-112636516D01*
X144056526Y-112533703D01*
X144019548Y-112442215D01*
X143988827Y-112365201D01*
X143965622Y-112305815D01*
X143951190Y-112267209D01*
X143946743Y-112252800D01*
X143957896Y-112236272D01*
X143987069Y-112209930D01*
X144025971Y-112180887D01*
X144136757Y-112089039D01*
X144223351Y-111983759D01*
X144284716Y-111867266D01*
X144319815Y-111741776D01*
X144327608Y-111609507D01*
X144321943Y-111548457D01*
X144291078Y-111421795D01*
X144237920Y-111309941D01*
X144165767Y-111214001D01*
X144077917Y-111135076D01*
X143977665Y-111074270D01*
X143868310Y-111032687D01*
X143753147Y-111011428D01*
X143635475Y-111011599D01*
X143518590Y-111034301D01*
X143405789Y-111080638D01*
X143300369Y-111151713D01*
X143256368Y-111191911D01*
X143171979Y-111295129D01*
X143113222Y-111407925D01*
X143079704Y-111527010D01*
X143071035Y-111649095D01*
X143086823Y-111770893D01*
X143126678Y-111889116D01*
X143190207Y-112000475D01*
X143277021Y-112101684D01*
X143374029Y-112180887D01*
X143414437Y-112211162D01*
X143442982Y-112237219D01*
X143453257Y-112252825D01*
X143447877Y-112269843D01*
X143432575Y-112310500D01*
X143408612Y-112371642D01*
X143377244Y-112450119D01*
X143339732Y-112542780D01*
X143297333Y-112646472D01*
X143255663Y-112747526D01*
X143209690Y-112858607D01*
X143167107Y-112961541D01*
X143129221Y-113053165D01*
X143097340Y-113130316D01*
X143072771Y-113189831D01*
X143056820Y-113228544D01*
X143050910Y-113243000D01*
X143036948Y-113257685D01*
X143009940Y-113257642D01*
X142966413Y-113242099D01*
X142902890Y-113210284D01*
X142902388Y-113210013D01*
X142854560Y-113185323D01*
X142815897Y-113167338D01*
X142794095Y-113159614D01*
X142793133Y-113159543D01*
X142776721Y-113167378D01*
X142740487Y-113189165D01*
X142688474Y-113222328D01*
X142624725Y-113264291D01*
X142554060Y-113311943D01*
X142482116Y-113360191D01*
X142417274Y-113402151D01*
X142363735Y-113435227D01*
X142325697Y-113456821D01*
X142307533Y-113464343D01*
X142290808Y-113454457D01*
X142257180Y-113426826D01*
X142210010Y-113384495D01*
X142152658Y-113330505D01*
X142088484Y-113267899D01*
X142067497Y-113246983D01*
X141850499Y-113029623D01*
X142015668Y-112787220D01*
X142065864Y-112712781D01*
X142109919Y-112645972D01*
X142145362Y-112590665D01*
X142169719Y-112550729D01*
X142180522Y-112530036D01*
X142180838Y-112528563D01*
X142175143Y-112509058D01*
X142159826Y-112469822D01*
X142137537Y-112417430D01*
X142121893Y-112382355D01*
X142092641Y-112315201D01*
X142065094Y-112247358D01*
X142043737Y-112190034D01*
X142037935Y-112172572D01*
X142021452Y-112125938D01*
X142005340Y-112089905D01*
X141996490Y-112076287D01*
X141976960Y-112067952D01*
X141934334Y-112056137D01*
X141874145Y-112042181D01*
X141801922Y-112027422D01*
X141769600Y-112021355D01*
X141687522Y-112006273D01*
X141608795Y-111991669D01*
X141541109Y-111978980D01*
X141492160Y-111969642D01*
X141482943Y-111967839D01*
X141406743Y-111952799D01*
X141406743Y-111635492D01*
X141406914Y-111531154D01*
X141407616Y-111452213D01*
X141409134Y-111395038D01*
X141411749Y-111355999D01*
X141415746Y-111331465D01*
X141421409Y-111317805D01*
X141429020Y-111311389D01*
X141432143Y-111310199D01*
X141450978Y-111305980D01*
X141492588Y-111297562D01*
X141551630Y-111285961D01*
X141622757Y-111272195D01*
X141700625Y-111257280D01*
X141779887Y-111242232D01*
X141855198Y-111228069D01*
X141921213Y-111215806D01*
X141972587Y-111206461D01*
X142003975Y-111201050D01*
X142010959Y-111200114D01*
X142017285Y-111187596D01*
X142031290Y-111154246D01*
X142050355Y-111106377D01*
X142057634Y-111087629D01*
X142086996Y-111015195D01*
X142121571Y-110935170D01*
X142152537Y-110867728D01*
X142175323Y-110816159D01*
X142190482Y-110773785D01*
X142195542Y-110747834D01*
X142194736Y-110744356D01*
X142184041Y-110727936D01*
X142159620Y-110691417D01*
X142124095Y-110638687D01*
X142080087Y-110573635D01*
X142030217Y-110500151D01*
X142020356Y-110485645D01*
X141962492Y-110399704D01*
X141919956Y-110334261D01*
X141891054Y-110286304D01*
X141874090Y-110252820D01*
X141867367Y-110230795D01*
X141869190Y-110217217D01*
X141869236Y-110217131D01*
X141883586Y-110199297D01*
X141915323Y-110164817D01*
X141961010Y-110117268D01*
X142017204Y-110060222D01*
X142080468Y-109997255D01*
X142087602Y-109990227D01*
X142167330Y-109913020D01*
X142228857Y-109856330D01*
X142273421Y-109819110D01*
X142302257Y-109800315D01*
X142314958Y-109797889D01*
X142333494Y-109808471D01*
X142371961Y-109832916D01*
X142426386Y-109868612D01*
X142492798Y-109912947D01*
X142567225Y-109963311D01*
X142584601Y-109975160D01*
X142831297Y-110143626D01*
X142942706Y-110093062D01*
X143010457Y-110063595D01*
X143083183Y-110033959D01*
X143145703Y-110010330D01*
X143148457Y-110009358D01*
X143197360Y-109991457D01*
X143235057Y-109976320D01*
X143253425Y-109967210D01*
X143253456Y-109967184D01*
X143259285Y-109950717D01*
X143269192Y-109910219D01*
X143282195Y-109850242D01*
X143297309Y-109775340D01*
X143313552Y-109690064D01*
X143314881Y-109682875D01*
X143331175Y-109595014D01*
X143346133Y-109515260D01*
X143358791Y-109448681D01*
X143368186Y-109400347D01*
X143373354Y-109375325D01*
X143373444Y-109374943D01*
X143376589Y-109364299D01*
X143382704Y-109356262D01*
X143395453Y-109350467D01*
X143418500Y-109346547D01*
X143455509Y-109344135D01*
X143510144Y-109342865D01*
X143586067Y-109342371D01*
X143686944Y-109342286D01*
X143700000Y-109342286D01*
X143803910Y-109342348D01*
X143803910Y-109342348D01*
G37*
X143803910Y-109342348D02*
X143882454Y-109342778D01*
X143939298Y-109343942D01*
X143978105Y-109346207D01*
X144002538Y-109349940D01*
X144016262Y-109355506D01*
X144022940Y-109363273D01*
X144026236Y-109373605D01*
X144026556Y-109374943D01*
X144031562Y-109399079D01*
X144040829Y-109446701D01*
X144053392Y-109512741D01*
X144068287Y-109592128D01*
X144084551Y-109679796D01*
X144085119Y-109682875D01*
X144101410Y-109768789D01*
X144116652Y-109844696D01*
X144129861Y-109906045D01*
X144140054Y-109948282D01*
X144146248Y-109966855D01*
X144146543Y-109967184D01*
X144164788Y-109976253D01*
X144202405Y-109991367D01*
X144251271Y-110009262D01*
X144251543Y-110009358D01*
X144313093Y-110032493D01*
X144385657Y-110061965D01*
X144454057Y-110091597D01*
X144457294Y-110093062D01*
X144568702Y-110143626D01*
X144815399Y-109975160D01*
X144891077Y-109923803D01*
X144959631Y-109877889D01*
X145017088Y-109840030D01*
X145059476Y-109812837D01*
X145082825Y-109798921D01*
X145085042Y-109797889D01*
X145102010Y-109802484D01*
X145133701Y-109824655D01*
X145181352Y-109865447D01*
X145246198Y-109925905D01*
X145312397Y-109990227D01*
X145376214Y-110053612D01*
X145433329Y-110111451D01*
X145480305Y-110160175D01*
X145513703Y-110196210D01*
X145530085Y-110215984D01*
X145530694Y-110217002D01*
X145532505Y-110230572D01*
X145525683Y-110252733D01*
X145508540Y-110286478D01*
X145479393Y-110334800D01*
X145436555Y-110400692D01*
X145379448Y-110485517D01*
X145328766Y-110560177D01*
X145283461Y-110627140D01*
X145246150Y-110682516D01*
X145219452Y-110722420D01*
X145205985Y-110742962D01*
X145205137Y-110744356D01*
X145206781Y-110764038D01*
X145219245Y-110802293D01*
X145240048Y-110851889D01*
X145247462Y-110867728D01*
X145279814Y-110938290D01*
X145314328Y-111018353D01*
X145342365Y-111087629D01*
X145362568Y-111139045D01*
X145378615Y-111178119D01*
X145387888Y-111198541D01*
X145389041Y-111200114D01*
X145406096Y-111202721D01*
X145446298Y-111209863D01*
X145504302Y-111220523D01*
X145574763Y-111233685D01*
X145652335Y-111248333D01*
X145731672Y-111263449D01*
X145807431Y-111278018D01*
X145874264Y-111291022D01*
X145926828Y-111301445D01*
X145959776Y-111308270D01*
X145967857Y-111310199D01*
X145976205Y-111314962D01*
X145982506Y-111325718D01*
X145987045Y-111346098D01*
X145990104Y-111379734D01*
X145991967Y-111430255D01*
X145992918Y-111501292D01*
X145993240Y-111596476D01*
X145993257Y-111635492D01*
X145993257Y-111952799D01*
X145917057Y-111967839D01*
X145874663Y-111975995D01*
X145811400Y-111987899D01*
X145734962Y-112002116D01*
X145653043Y-112017210D01*
X145630400Y-112021355D01*
X145554806Y-112036053D01*
X145488953Y-112050505D01*
X145438366Y-112063375D01*
X145408574Y-112073322D01*
X145403612Y-112076287D01*
X145391426Y-112097283D01*
X145373953Y-112137967D01*
X145354577Y-112190322D01*
X145350734Y-112201600D01*
X145325339Y-112271523D01*
X145293817Y-112350418D01*
X145262969Y-112421266D01*
X145262817Y-112421595D01*
X145211447Y-112532733D01*
X145380399Y-112781253D01*
X145549352Y-113029772D01*
X145332429Y-113247058D01*
X145266819Y-113311726D01*
X145206979Y-113368733D01*
X145156267Y-113415033D01*
X145118046Y-113447584D01*
X145095675Y-113463343D01*
X145092466Y-113464343D01*
X145073626Y-113456469D01*
X145035180Y-113434578D01*
X144981330Y-113401267D01*
X144916276Y-113359131D01*
X144845940Y-113311943D01*
X144774555Y-113263810D01*
X144710908Y-113221928D01*
X144659041Y-113188871D01*
X144622995Y-113167218D01*
X144606867Y-113159543D01*
X144587189Y-113166037D01*
X144549875Y-113183150D01*
X144502621Y-113207326D01*
X144497612Y-113210013D01*
X144433977Y-113241927D01*
X144390341Y-113257579D01*
X144363202Y-113257745D01*
X144349057Y-113243204D01*
X144348975Y-113243000D01*
X144341905Y-113225779D01*
X144325042Y-113184899D01*
X144299695Y-113123525D01*
X144267171Y-113044819D01*
X144228778Y-112951947D01*
X144185822Y-112848072D01*
X144144222Y-112747502D01*
X144098504Y-112636516D01*
X144056526Y-112533703D01*
X144019548Y-112442215D01*
X143988827Y-112365201D01*
X143965622Y-112305815D01*
X143951190Y-112267209D01*
X143946743Y-112252800D01*
X143957896Y-112236272D01*
X143987069Y-112209930D01*
X144025971Y-112180887D01*
X144136757Y-112089039D01*
X144223351Y-111983759D01*
X144284716Y-111867266D01*
X144319815Y-111741776D01*
X144327608Y-111609507D01*
X144321943Y-111548457D01*
X144291078Y-111421795D01*
X144237920Y-111309941D01*
X144165767Y-111214001D01*
X144077917Y-111135076D01*
X143977665Y-111074270D01*
X143868310Y-111032687D01*
X143753147Y-111011428D01*
X143635475Y-111011599D01*
X143518590Y-111034301D01*
X143405789Y-111080638D01*
X143300369Y-111151713D01*
X143256368Y-111191911D01*
X143171979Y-111295129D01*
X143113222Y-111407925D01*
X143079704Y-111527010D01*
X143071035Y-111649095D01*
X143086823Y-111770893D01*
X143126678Y-111889116D01*
X143190207Y-112000475D01*
X143277021Y-112101684D01*
X143374029Y-112180887D01*
X143414437Y-112211162D01*
X143442982Y-112237219D01*
X143453257Y-112252825D01*
X143447877Y-112269843D01*
X143432575Y-112310500D01*
X143408612Y-112371642D01*
X143377244Y-112450119D01*
X143339732Y-112542780D01*
X143297333Y-112646472D01*
X143255663Y-112747526D01*
X143209690Y-112858607D01*
X143167107Y-112961541D01*
X143129221Y-113053165D01*
X143097340Y-113130316D01*
X143072771Y-113189831D01*
X143056820Y-113228544D01*
X143050910Y-113243000D01*
X143036948Y-113257685D01*
X143009940Y-113257642D01*
X142966413Y-113242099D01*
X142902890Y-113210284D01*
X142902388Y-113210013D01*
X142854560Y-113185323D01*
X142815897Y-113167338D01*
X142794095Y-113159614D01*
X142793133Y-113159543D01*
X142776721Y-113167378D01*
X142740487Y-113189165D01*
X142688474Y-113222328D01*
X142624725Y-113264291D01*
X142554060Y-113311943D01*
X142482116Y-113360191D01*
X142417274Y-113402151D01*
X142363735Y-113435227D01*
X142325697Y-113456821D01*
X142307533Y-113464343D01*
X142290808Y-113454457D01*
X142257180Y-113426826D01*
X142210010Y-113384495D01*
X142152658Y-113330505D01*
X142088484Y-113267899D01*
X142067497Y-113246983D01*
X141850499Y-113029623D01*
X142015668Y-112787220D01*
X142065864Y-112712781D01*
X142109919Y-112645972D01*
X142145362Y-112590665D01*
X142169719Y-112550729D01*
X142180522Y-112530036D01*
X142180838Y-112528563D01*
X142175143Y-112509058D01*
X142159826Y-112469822D01*
X142137537Y-112417430D01*
X142121893Y-112382355D01*
X142092641Y-112315201D01*
X142065094Y-112247358D01*
X142043737Y-112190034D01*
X142037935Y-112172572D01*
X142021452Y-112125938D01*
X142005340Y-112089905D01*
X141996490Y-112076287D01*
X141976960Y-112067952D01*
X141934334Y-112056137D01*
X141874145Y-112042181D01*
X141801922Y-112027422D01*
X141769600Y-112021355D01*
X141687522Y-112006273D01*
X141608795Y-111991669D01*
X141541109Y-111978980D01*
X141492160Y-111969642D01*
X141482943Y-111967839D01*
X141406743Y-111952799D01*
X141406743Y-111635492D01*
X141406914Y-111531154D01*
X141407616Y-111452213D01*
X141409134Y-111395038D01*
X141411749Y-111355999D01*
X141415746Y-111331465D01*
X141421409Y-111317805D01*
X141429020Y-111311389D01*
X141432143Y-111310199D01*
X141450978Y-111305980D01*
X141492588Y-111297562D01*
X141551630Y-111285961D01*
X141622757Y-111272195D01*
X141700625Y-111257280D01*
X141779887Y-111242232D01*
X141855198Y-111228069D01*
X141921213Y-111215806D01*
X141972587Y-111206461D01*
X142003975Y-111201050D01*
X142010959Y-111200114D01*
X142017285Y-111187596D01*
X142031290Y-111154246D01*
X142050355Y-111106377D01*
X142057634Y-111087629D01*
X142086996Y-111015195D01*
X142121571Y-110935170D01*
X142152537Y-110867728D01*
X142175323Y-110816159D01*
X142190482Y-110773785D01*
X142195542Y-110747834D01*
X142194736Y-110744356D01*
X142184041Y-110727936D01*
X142159620Y-110691417D01*
X142124095Y-110638687D01*
X142080087Y-110573635D01*
X142030217Y-110500151D01*
X142020356Y-110485645D01*
X141962492Y-110399704D01*
X141919956Y-110334261D01*
X141891054Y-110286304D01*
X141874090Y-110252820D01*
X141867367Y-110230795D01*
X141869190Y-110217217D01*
X141869236Y-110217131D01*
X141883586Y-110199297D01*
X141915323Y-110164817D01*
X141961010Y-110117268D01*
X142017204Y-110060222D01*
X142080468Y-109997255D01*
X142087602Y-109990227D01*
X142167330Y-109913020D01*
X142228857Y-109856330D01*
X142273421Y-109819110D01*
X142302257Y-109800315D01*
X142314958Y-109797889D01*
X142333494Y-109808471D01*
X142371961Y-109832916D01*
X142426386Y-109868612D01*
X142492798Y-109912947D01*
X142567225Y-109963311D01*
X142584601Y-109975160D01*
X142831297Y-110143626D01*
X142942706Y-110093062D01*
X143010457Y-110063595D01*
X143083183Y-110033959D01*
X143145703Y-110010330D01*
X143148457Y-110009358D01*
X143197360Y-109991457D01*
X143235057Y-109976320D01*
X143253425Y-109967210D01*
X143253456Y-109967184D01*
X143259285Y-109950717D01*
X143269192Y-109910219D01*
X143282195Y-109850242D01*
X143297309Y-109775340D01*
X143313552Y-109690064D01*
X143314881Y-109682875D01*
X143331175Y-109595014D01*
X143346133Y-109515260D01*
X143358791Y-109448681D01*
X143368186Y-109400347D01*
X143373354Y-109375325D01*
X143373444Y-109374943D01*
X143376589Y-109364299D01*
X143382704Y-109356262D01*
X143395453Y-109350467D01*
X143418500Y-109346547D01*
X143455509Y-109344135D01*
X143510144Y-109342865D01*
X143586067Y-109342371D01*
X143686944Y-109342286D01*
X143700000Y-109342286D01*
X143803910Y-109342348D01*
D13*
X144627714Y-103228857D02*
X144627714Y-104200286D01*
X144684857Y-104314571D01*
X144742000Y-104371714D01*
X144856286Y-104428857D01*
X145084857Y-104428857D01*
X145199143Y-104371714D01*
X145256286Y-104314571D01*
X145313429Y-104200286D01*
X145313429Y-103228857D01*
X146513429Y-104428857D02*
X145827714Y-104428857D01*
X146170572Y-104428857D02*
X146170572Y-103228857D01*
X146056286Y-103400286D01*
X145942000Y-103514571D01*
X145827714Y-103571714D01*
X135833334Y-108357143D02*
X135785715Y-108404762D01*
X135642858Y-108452381D01*
X135547620Y-108452381D01*
X135404762Y-108404762D01*
X135309524Y-108309524D01*
X135261905Y-108214286D01*
X135214286Y-108023810D01*
X135214286Y-107880952D01*
X135261905Y-107690476D01*
X135309524Y-107595238D01*
X135404762Y-107500000D01*
X135547620Y-107452381D01*
X135642858Y-107452381D01*
X135785715Y-107500000D01*
X135833334Y-107547619D01*
X136785715Y-108452381D02*
X136214286Y-108452381D01*
X136500000Y-108452381D02*
X136500000Y-107452381D01*
X136404762Y-107595238D01*
X136309524Y-107690476D01*
X136214286Y-107738095D01*
X138233334Y-103757143D02*
X138185715Y-103804762D01*
X138042858Y-103852381D01*
X137947620Y-103852381D01*
X137804762Y-103804762D01*
X137709524Y-103709524D01*
X137661905Y-103614286D01*
X137614286Y-103423810D01*
X137614286Y-103280952D01*
X137661905Y-103090476D01*
X137709524Y-102995238D01*
X137804762Y-102900000D01*
X137947620Y-102852381D01*
X138042858Y-102852381D01*
X138185715Y-102900000D01*
X138233334Y-102947619D01*
X138614286Y-102947619D02*
X138661905Y-102900000D01*
X138757143Y-102852381D01*
X138995239Y-102852381D01*
X139090477Y-102900000D01*
X139138096Y-102947619D01*
X139185715Y-103042857D01*
X139185715Y-103138095D01*
X139138096Y-103280952D01*
X138566667Y-103852381D01*
X139185715Y-103852381D01*
X150633334Y-103257143D02*
X150585715Y-103304762D01*
X150442858Y-103352381D01*
X150347620Y-103352381D01*
X150204762Y-103304762D01*
X150109524Y-103209524D01*
X150061905Y-103114286D01*
X150014286Y-102923810D01*
X150014286Y-102780952D01*
X150061905Y-102590476D01*
X150109524Y-102495238D01*
X150204762Y-102400000D01*
X150347620Y-102352381D01*
X150442858Y-102352381D01*
X150585715Y-102400000D01*
X150633334Y-102447619D01*
X150966667Y-102352381D02*
X151585715Y-102352381D01*
X151252381Y-102733333D01*
X151395239Y-102733333D01*
X151490477Y-102780952D01*
X151538096Y-102828571D01*
X151585715Y-102923810D01*
X151585715Y-103161905D01*
X151538096Y-103257143D01*
X151490477Y-103304762D01*
X151395239Y-103352381D01*
X151109524Y-103352381D01*
X151014286Y-103304762D01*
X150966667Y-103257143D01*
X147733334Y-113452381D02*
X147400000Y-112976190D01*
X147161905Y-113452381D02*
X147161905Y-112452381D01*
X147542858Y-112452381D01*
X147638096Y-112500000D01*
X147685715Y-112547619D01*
X147733334Y-112642857D01*
X147733334Y-112785714D01*
X147685715Y-112880952D01*
X147638096Y-112928571D01*
X147542858Y-112976190D01*
X147161905Y-112976190D01*
X148685715Y-113452381D02*
X148114286Y-113452381D01*
X148400000Y-113452381D02*
X148400000Y-112452381D01*
X148304762Y-112595238D01*
X148209524Y-112690476D01*
X148114286Y-112738095D01*
X147633334Y-111052381D02*
X147300000Y-110576190D01*
X147061905Y-111052381D02*
X147061905Y-110052381D01*
X147442858Y-110052381D01*
X147538096Y-110100000D01*
X147585715Y-110147619D01*
X147633334Y-110242857D01*
X147633334Y-110385714D01*
X147585715Y-110480952D01*
X147538096Y-110528571D01*
X147442858Y-110576190D01*
X147061905Y-110576190D01*
X148014286Y-110147619D02*
X148061905Y-110100000D01*
X148157143Y-110052381D01*
X148395239Y-110052381D01*
X148490477Y-110100000D01*
X148538096Y-110147619D01*
X148585715Y-110242857D01*
X148585715Y-110338095D01*
X148538096Y-110480952D01*
X147966667Y-111052381D01*
X148585715Y-111052381D01*
X150133334Y-106552381D02*
X149800000Y-106076190D01*
X149561905Y-106552381D02*
X149561905Y-105552381D01*
X149942858Y-105552381D01*
X150038096Y-105600000D01*
X150085715Y-105647619D01*
X150133334Y-105742857D01*
X150133334Y-105885714D01*
X150085715Y-105980952D01*
X150038096Y-106028571D01*
X149942858Y-106076190D01*
X149561905Y-106076190D01*
X150466667Y-105552381D02*
X151085715Y-105552381D01*
X150752381Y-105933333D01*
X150895239Y-105933333D01*
X150990477Y-105980952D01*
X151038096Y-106028571D01*
X151085715Y-106123810D01*
X151085715Y-106361905D01*
X151038096Y-106457143D01*
X150990477Y-106504762D01*
X150895239Y-106552381D01*
X150609524Y-106552381D01*
X150514286Y-106504762D01*
X150466667Y-106457143D01*
X135561905Y-111852381D02*
X135561905Y-110852381D01*
X135800000Y-110852381D01*
X135942858Y-110900000D01*
X136038096Y-110995238D01*
X136085715Y-111090476D01*
X136133334Y-111280952D01*
X136133334Y-111423810D01*
X136085715Y-111614286D01*
X136038096Y-111709524D01*
X135942858Y-111804762D01*
X135800000Y-111852381D01*
X135561905Y-111852381D01*
X137085715Y-111852381D02*
X136514286Y-111852381D01*
X136800000Y-111852381D02*
X136800000Y-110852381D01*
X136704762Y-110995238D01*
X136609524Y-111090476D01*
X136514286Y-111138095D01*
X131166645Y-114699041D02*
X131166645Y-113699041D01*
X131547598Y-113699041D01*
X131642836Y-113746660D01*
X131690455Y-113794279D01*
X131738074Y-113889517D01*
X131738074Y-114032374D01*
X131690455Y-114127612D01*
X131642836Y-114175231D01*
X131547598Y-114222850D01*
X131166645Y-114222850D01*
X132690455Y-114699041D02*
X132119026Y-114699041D01*
X132404740Y-114699041D02*
X132404740Y-113699041D01*
X132309502Y-113841898D01*
X132214264Y-113937136D01*
X132119026Y-113984755D01*
X156141905Y-107272381D02*
X156141905Y-106272381D01*
X156522858Y-106272381D01*
X156618096Y-106320000D01*
X156665715Y-106367619D01*
X156713334Y-106462857D01*
X156713334Y-106605714D01*
X156665715Y-106700952D01*
X156618096Y-106748571D01*
X156522858Y-106796190D01*
X156141905Y-106796190D01*
X157094286Y-106367619D02*
X157141905Y-106320000D01*
X157237143Y-106272381D01*
X157475239Y-106272381D01*
X157570477Y-106320000D01*
X157618096Y-106367619D01*
X157665715Y-106462857D01*
X157665715Y-106558095D01*
X157618096Y-106700952D01*
X157046667Y-107272381D01*
X157665715Y-107272381D01*
X154041905Y-103952381D02*
X154041905Y-102952381D01*
X154422858Y-102952381D01*
X154518096Y-103000000D01*
X154565715Y-103047619D01*
X154613334Y-103142857D01*
X154613334Y-103285714D01*
X154565715Y-103380952D01*
X154518096Y-103428571D01*
X154422858Y-103476190D01*
X154041905Y-103476190D01*
X154946667Y-102952381D02*
X155565715Y-102952381D01*
X155232381Y-103333333D01*
X155375239Y-103333333D01*
X155470477Y-103380952D01*
X155518096Y-103428571D01*
X155565715Y-103523810D01*
X155565715Y-103761905D01*
X155518096Y-103857143D01*
X155470477Y-103904762D01*
X155375239Y-103952381D01*
X155089524Y-103952381D01*
X154994286Y-103904762D01*
X154946667Y-103857143D01*
X131194585Y-107183181D02*
X131194585Y-106183181D01*
X131575538Y-106183181D01*
X131670776Y-106230800D01*
X131718395Y-106278419D01*
X131766014Y-106373657D01*
X131766014Y-106516514D01*
X131718395Y-106611752D01*
X131670776Y-106659371D01*
X131575538Y-106706990D01*
X131194585Y-106706990D01*
X132623157Y-106516514D02*
X132623157Y-107183181D01*
X132385061Y-106135562D02*
X132146966Y-106849848D01*
X132766014Y-106849848D01*
M02*
