G04 #@! TF.FileFunction,Copper,L1,Top,Signal*
%FSLAX46Y46*%
G04 Gerber Fmt 4.6, Leading zero omitted, Abs format (unit mm)*
G04 Created by KiCad (PCBNEW 4.0.3+e1-6302~38~ubuntu16.04.1-stable) date Sun Aug 28 11:49:07 2016*
%MOMM*%
%LPD*%
G01*
G04 APERTURE LIST*
%ADD10C,0.100000*%
%ADD11R,0.500000X0.250000*%
%ADD12R,1.600000X2.200000*%
%ADD13R,1.500000X1.250000*%
%ADD14R,2.032000X1.524000*%
%ADD15R,1.500000X1.300000*%
%ADD16R,1.200000X0.750000*%
%ADD17R,2.032000X2.032000*%
%ADD18O,2.032000X2.032000*%
%ADD19C,0.600000*%
%ADD20C,0.250000*%
G04 APERTURE END LIST*
D10*
D11*
X146715000Y-106315000D03*
X144115000Y-106315000D03*
X146715000Y-106815000D03*
X144115000Y-106815000D03*
X146715000Y-107315000D03*
X144115000Y-107315000D03*
X146715000Y-107815000D03*
X144115000Y-107815000D03*
X146715000Y-108315000D03*
X144115000Y-108315000D03*
D12*
X145415000Y-107315000D03*
D13*
X140696000Y-108966000D03*
X138196000Y-108966000D03*
X140696000Y-105410000D03*
X138196000Y-105410000D03*
D14*
X153400000Y-102049000D03*
X153400000Y-105351000D03*
D15*
X150288000Y-112776000D03*
X152988000Y-112776000D03*
X150288000Y-110490000D03*
X152988000Y-110490000D03*
X150288000Y-108204000D03*
X152988000Y-108204000D03*
D16*
X140396000Y-111506000D03*
X138496000Y-111506000D03*
D17*
X132080000Y-109220000D03*
D18*
X132080000Y-111760000D03*
D17*
X157480000Y-109220000D03*
D18*
X157480000Y-111760000D03*
D17*
X157480000Y-101600000D03*
D18*
X157480000Y-104140000D03*
D17*
X132080000Y-101600000D03*
D18*
X132080000Y-104140000D03*
D19*
X138978640Y-110299500D03*
X137300000Y-104000000D03*
X151600000Y-105300000D03*
X154900000Y-108200000D03*
X144940000Y-108490000D03*
X145910000Y-108520000D03*
X145415000Y-107315000D03*
X145830000Y-106050000D03*
X144880000Y-106090000D03*
D20*
X138196000Y-108966000D02*
X138196000Y-109516860D01*
X138196000Y-109516860D02*
X138978640Y-110299500D01*
X138196000Y-105410000D02*
X138196000Y-104896000D01*
X138196000Y-104896000D02*
X137300000Y-104000000D01*
X153400000Y-105351000D02*
X151651000Y-105351000D01*
X151651000Y-105351000D02*
X151600000Y-105300000D01*
X152988000Y-108204000D02*
X154896000Y-108204000D01*
X154896000Y-108204000D02*
X154900000Y-108200000D01*
X144115000Y-108315000D02*
X144765000Y-108315000D01*
X144765000Y-108315000D02*
X144940000Y-108490000D01*
X144765000Y-108315000D02*
X144940000Y-108490000D01*
X145415000Y-108015000D02*
X144940000Y-108490000D01*
X145415000Y-107315000D02*
X145415000Y-108025000D01*
X145415000Y-108025000D02*
X145910000Y-108520000D01*
X145415000Y-107315000D02*
X145415000Y-108015000D01*
X145415000Y-107315000D02*
X145415000Y-106465000D01*
X145415000Y-106465000D02*
X145830000Y-106050000D01*
X145415000Y-107315000D02*
X145415000Y-106625000D01*
X145415000Y-106625000D02*
X144880000Y-106090000D01*
X144115000Y-107815000D02*
X141847000Y-107815000D01*
X141847000Y-107815000D02*
X140396000Y-109266000D01*
X140396000Y-109266000D02*
X140396000Y-111506000D01*
X144115000Y-106815000D02*
X142375000Y-106815000D01*
X142375000Y-106815000D02*
X140970000Y-105410000D01*
X140970000Y-105410000D02*
X140696000Y-105410000D01*
X153400000Y-102049000D02*
X157031000Y-102049000D01*
X157031000Y-102049000D02*
X157480000Y-101600000D01*
X153400000Y-102049000D02*
X152451000Y-102049000D01*
X152451000Y-102049000D02*
X148185000Y-106315000D01*
X148185000Y-106315000D02*
X146715000Y-106315000D01*
X153851000Y-102500000D02*
X153400000Y-102049000D01*
X132080000Y-109220000D02*
X133807200Y-109220000D01*
X136093200Y-111506000D02*
X138496000Y-111506000D01*
X133807200Y-109220000D02*
X136093200Y-111506000D01*
X138496000Y-111506000D02*
X138303000Y-111506000D01*
X157500000Y-110000000D02*
X157500000Y-109300000D01*
X157500000Y-109300000D02*
X155015000Y-106815000D01*
X155015000Y-106815000D02*
X146715000Y-106815000D01*
X150288000Y-112776000D02*
X150241000Y-112776000D01*
X150241000Y-112776000D02*
X147955000Y-110490000D01*
X147955000Y-110490000D02*
X147955000Y-109220000D01*
X147955000Y-109220000D02*
X147050000Y-108315000D01*
X147050000Y-108315000D02*
X146715000Y-108315000D01*
X146715000Y-107815000D02*
X147820000Y-107815000D01*
X148971000Y-109173000D02*
X150288000Y-110490000D01*
X148971000Y-108966000D02*
X148971000Y-109173000D01*
X147820000Y-107815000D02*
X148971000Y-108966000D01*
X150288000Y-110490000D02*
X150702000Y-110490000D01*
X150702000Y-110490000D02*
X152988000Y-112776000D01*
X152988000Y-110490000D02*
X152988000Y-110443000D01*
X152988000Y-110443000D02*
X150749000Y-108204000D01*
X150749000Y-108204000D02*
X150288000Y-108204000D01*
X146715000Y-107315000D02*
X149399000Y-107315000D01*
X149399000Y-107315000D02*
X150288000Y-108204000D01*
X132080000Y-101600000D02*
X133035040Y-101600000D01*
X133035040Y-101600000D02*
X135595360Y-104160320D01*
X135595360Y-104160320D02*
X135595360Y-105928160D01*
X135595360Y-105928160D02*
X136982200Y-107315000D01*
X136982200Y-107315000D02*
X144115000Y-107315000D01*
M02*
